<svg width="157" height="50" viewBox="0 0 157 50" fill="none" xmlns="http://www.w3.org/2000/svg">
<path d="M7.7627 19.4143C10.5392 19.4143 12.79 17.1635 12.79 14.3869C12.79 11.6104 10.5392 9.35962 7.7627 9.35962C4.98618 9.35962 2.73535 11.6104 2.73535 14.3869C2.73535 17.1635 4.98618 19.4143 7.7627 19.4143Z" fill="white"/>
<path d="M1.47754 17.6694L1.48056 17.6597L1.47922 17.6556L1.47754 17.6694Z" fill="white"/>
<path d="M5.82174 20.936L5.81869 20.9326L5.81055 20.9288L5.82174 20.936Z" fill="white"/>
<path d="M10.505 16.9516C10.4242 16.8022 10.1879 16.7197 10.2341 16.5211C10.2755 16.3541 10.4663 16.3724 10.6068 16.3007C10.7277 16.2264 10.6866 16.1717 10.5885 16.1049C10.4497 16.0095 10.3142 15.9103 10.1933 15.7959C10.0521 15.6611 10.0182 15.5603 10.0979 15.4483C10.3485 15.1183 10.3359 14.6827 10.3532 14.2895C10.3767 14.0271 10.3329 13.762 10.2487 13.5148C10.2168 13.3855 10.1499 13.2721 10.1017 13.1498C10.0327 13.0405 9.96416 12.9047 9.93225 12.867C9.90441 12.829 9.93225 12.8351 9.91018 12.7C9.91188 12.6742 9.90442 12.6202 9.90102 12.6195C9.79374 12.5924 9.70989 12.5411 9.64165 12.4742L9.59275 12.4219L9.58054 12.408L9.57986 12.4067V12.406L9.57917 12.405C9.6155 12.4437 9.49735 12.3198 9.65997 12.4905L9.65964 12.4892L9.65522 12.4851L9.64198 12.4705C9.6267 12.4501 9.61176 12.4277 9.59785 12.404C9.54624 12.3055 9.49635 12.1904 9.37447 12.1812C9.28076 12.1636 9.13035 12.2064 9.22202 11.9772C9.2356 11.9477 9.19521 11.927 9.16601 11.9327C9.00882 11.9548 8.89915 11.9147 8.80409 11.8214C8.69748 11.7579 8.59837 11.6441 8.46392 11.6516C8.43642 11.6509 8.41436 11.5654 8.37905 11.5912C8.29214 11.6516 8.21609 11.6679 8.14378 11.6479C8.07146 11.6258 7.99779 11.5892 7.92106 11.5837C7.74622 11.5545 7.56186 11.5566 7.3938 11.6262C7.31979 11.6591 7.23357 11.6737 7.1599 11.6652C6.84145 11.5824 6.54302 11.7121 6.30164 11.8889C6.15022 11.9864 6.13257 12.0499 6.04057 12.1154L5.76047 12.3904L5.68884 12.4573L5.68407 12.4613L5.68204 12.4627L5.6807 12.4637C5.84128 12.3109 5.7255 12.4209 5.7608 12.387L5.75877 12.3863L5.75436 12.3914L5.74553 12.4023L5.72719 12.4236C5.70241 12.4508 5.67661 12.4769 5.64843 12.5031C5.58596 12.7251 5.47597 12.8857 5.35578 13.0541C5.23832 13.2215 5.13375 13.4092 5.12832 13.62C5.13545 13.7093 4.95077 13.7263 4.96367 13.8244C4.9871 13.9232 4.95178 14.0101 4.91783 14.1025C4.89645 14.1952 4.89033 14.2926 4.96129 14.3826C5.0903 14.5068 4.89508 14.6521 4.98708 14.7944C5.02918 14.8793 5.05804 14.9848 5.02511 15.1122C4.98165 15.2368 5.08487 15.3556 5.12832 15.471C5.18875 15.561 5.22507 15.6618 5.28346 15.7501C5.3388 15.8292 5.39687 15.9578 5.43048 15.9904C5.4495 16.0176 5.46408 16.0461 5.47901 16.077C5.47562 16.0838 5.51162 16.1249 5.54286 16.1605L5.63486 16.2678L5.82021 16.482L5.82191 16.4841C5.83855 16.5011 5.67764 16.3333 5.74622 16.405L5.74688 16.406L5.74926 16.4067L5.75299 16.4104L5.76012 16.4169L5.77541 16.4304L5.80494 16.4583L5.86435 16.5143C6.01305 16.6681 6.22762 16.7757 6.48055 16.6997C6.68051 16.6331 6.8024 16.7737 6.88693 16.9461C6.95246 17.1088 7.06448 17.123 7.18535 17.1373C7.83209 17.1539 8.43642 17.1247 9.08012 16.9604C9.16262 16.9404 9.24103 16.9108 9.30588 16.8602C9.40399 16.7845 9.42096 16.7828 9.51398 16.8053C9.55439 16.8178 9.5992 16.8395 9.65114 16.8657C9.72006 16.8718 9.78966 16.8871 9.86401 16.9088C10.4809 17.0945 10.8662 17.5403 11.3042 17.9304C11.3551 17.9748 11.404 18.075 11.3772 18.1354C11.147 18.662 11.6185 18.699 11.8243 18.9013C12.0209 19.1077 12.0636 19.0483 11.8243 19.4051C11.7041 19.5532 11.553 19.6913 11.406 19.8316C11.2628 19.9606 11.1354 20.078 11.0363 20.2349C10.9056 20.4505 10.5077 20.5537 10.2269 20.6949C9.22033 21.1648 8.06841 21.3664 6.93345 21.2819C6.6605 21.2592 6.41571 21.2065 6.18383 21.0992L6.18586 21.1064C6.09725 21.0147 5.94583 20.9859 5.81851 20.9326C5.77302 20.8589 5.71159 20.8178 5.58869 20.8171C5.40265 20.8154 5.52961 20.9234 5.51637 20.9821C4.39263 20.699 3.34221 20.1178 2.53861 19.1855C2.56917 19.1607 2.66422 19.1587 2.60956 19.0993C2.53861 19.0229 2.50839 19.1091 2.47444 19.1495C2.4724 19.0884 2.44864 19.0432 2.41333 19.0066C2.37768 18.9668 2.33931 18.9519 2.267 18.8833C2.13934 18.7689 2.00661 18.647 1.97198 18.4719C1.96485 18.4196 1.80224 18.2933 1.86844 18.2172C1.90103 18.1751 2.00321 18.1609 1.91732 18.0471C1.84908 17.9579 1.82022 18.0872 1.77608 18.0936C1.5313 18.1256 1.52859 17.8482 1.47902 17.6594L1.51128 17.5341C1.43863 17.3997 1.35646 17.1736 1.29943 17.1505C1.10014 17.0701 1.12764 16.9478 1.12595 16.7594C1.129 16.6301 1.15887 16.5058 0.970452 16.3031C0.805794 16.1269 0.69138 15.6102 0.692059 15.2507C0.688664 14.8416 0.575954 14.5163 0.56543 14.1436C0.761661 14.056 0.799672 13.9551 0.683563 13.7582C0.627545 13.6649 0.574595 13.6211 0.610582 13.4588C0.665581 13.2042 0.675429 12.9512 0.710397 12.702C0.734502 12.4498 0.769813 12.1999 0.870305 11.9691C1.2115 11.1251 1.52452 10.2359 2.1638 9.58508C2.28738 9.46388 2.40551 9.34234 2.51891 9.22046C2.63332 9.1091 2.74501 8.99774 2.85671 8.88809C2.95313 8.76722 3.31572 8.45318 3.59988 8.22436C3.61618 8.24133 3.62738 8.26306 3.64945 8.27596C3.69562 8.30007 3.79475 8.31433 3.83617 8.26171C3.8837 8.20331 3.72244 8.26747 3.68578 8.23794C3.66982 8.22232 3.6267 8.2264 3.5975 8.22232C3.84602 8.10622 4.03683 7.88961 4.31759 7.88078C4.4741 7.88452 4.64793 7.76298 4.8204 7.62344C5.19962 7.32536 5.69087 7.09926 6.19198 7.19941H6.19332C6.4381 7.06972 6.72159 7.03305 7.00304 6.99028C7.28754 6.96889 7.57034 6.9475 7.85281 6.92577C7.99845 6.91389 8.15803 6.98348 8.26089 7.0558L8.39567 7.06497C8.63909 7.06734 8.88388 7.11216 9.12832 7.14271C9.37174 7.18549 9.61244 7.23166 9.86231 7.23539C10.1193 7.25406 10.3974 7.35897 10.5077 7.56505C10.5641 7.67708 10.6985 7.70119 10.8265 7.72122H10.8102C11.1388 7.7168 11.4424 7.86212 11.7917 8.08076C12.1445 8.31739 12.4901 8.57404 12.7895 8.8711L13.0193 9.09043L13.129 9.20483L13.1473 9.22555L13.1809 9.26663L13.2502 9.34777L13.3894 9.51208L13.46 9.59424L13.5724 9.74057C13.7177 9.93578 13.8715 10.1419 13.9964 10.3357L14.3166 10.8844C14.5094 11.2609 14.6917 11.6445 14.8343 12.0444C15.0462 12.6012 15.0282 13.1794 15.1494 13.7606C15.2013 14.0709 15.0777 14.2957 14.926 14.3588C14.6894 14.459 14.6089 14.7404 14.5875 15.1189C14.5379 15.6903 14.3179 15.9955 13.9869 16.0084C13.8525 16.0142 13.7788 16.1137 13.7533 16.3493C13.7228 16.7638 13.4906 17.142 13.3117 17.5179C13.1453 17.8655 12.9104 17.8835 12.7294 17.8044C12.5159 17.711 12.3427 17.6472 12.0531 17.9602C11.9068 18.0984 11.7116 18.1028 11.5669 18.0258C11.1039 17.7834 10.7467 17.4323 10.505 16.9516ZM1.52622 17.5389C1.55949 17.6251 1.59886 17.7165 1.68068 17.7185C1.68849 17.7185 1.69393 17.6907 1.68849 17.6778C1.63859 17.5593 1.58767 17.5443 1.52622 17.5389ZM6.1638 7.21299C6.04463 7.24694 5.92581 7.28734 5.84535 7.35693C5.81445 7.38341 5.83754 7.39938 5.89491 7.38716C6.0375 7.35626 6.06364 7.26629 6.1638 7.21299Z" fill="white"/>
<path d="M0.558594 14.1483L0.566737 14.1442L0.56539 14.1375L0.558594 14.1483Z" fill="white"/>
<path d="M9.58371 16.477C9.4968 17.435 9.56165 18.3235 9.59764 19.213C9.63838 20.2084 9.64957 21.2062 9.67774 22.2026C9.69302 22.7811 9.73853 23.3607 9.73378 23.9399C9.72461 25.0714 9.86074 26.2006 9.77756 27.3356C9.74191 27.8129 9.74226 28.3048 9.75856 28.79C9.78402 29.5538 9.72767 30.3191 9.71239 31.084L9.69778 32.5764C9.67571 33.455 9.69032 34.3344 9.6214 35.213C9.58406 35.6941 9.68589 36.1823 9.73342 36.6664C9.78299 37.1634 9.75177 37.6598 9.76026 38.1571C9.76229 38.2733 9.75483 38.3887 9.76094 38.5044C9.77927 38.8239 9.69847 38.9176 9.32705 38.9679C8.98925 39.0123 8.64975 39.0531 8.30855 39.0779C8.12794 39.0911 7.94595 39.047 7.84037 38.9085C7.72867 38.7631 7.57691 38.7261 7.3834 38.736C7.1926 38.7455 6.99298 38.7143 6.81032 38.7479C6.5669 38.7923 6.38764 38.6562 6.17206 38.6389C6.08515 38.6311 6.07802 38.5662 6.0658 38.5078C6.04102 38.3951 6.00163 38.2851 5.98805 38.1717C5.94358 37.8112 5.7908 37.4632 5.79284 37.0965C5.79284 36.9814 5.74904 36.8501 5.79895 36.7509C6.05697 36.2322 5.92931 35.6866 5.92999 35.1587C5.93067 34.8368 5.98432 34.5167 6.02778 34.2091C6.07836 33.8482 5.99485 33.5022 6.01149 33.1495C6.03424 32.6976 5.94088 32.2403 5.90625 31.7854C5.89878 31.6832 5.90998 31.578 5.93035 31.4764C5.98806 31.1885 6.00129 30.899 5.93441 30.6117C5.79623 30.0275 5.93849 29.4425 5.97108 28.8623C5.98398 28.6396 6.03151 28.4315 5.96056 28.2084C5.90726 28.0431 5.88248 27.8686 5.96837 27.6947C6.06309 27.506 5.98602 27.3043 5.98704 27.1091C5.99009 26.5343 6.1371 25.9616 6.00809 25.3793C5.95207 25.1257 6.0658 24.8565 6.06342 24.5873C6.05629 24.0152 5.97141 23.4398 6.09092 22.8674C6.12317 22.7122 5.9232 22.5914 5.97413 22.4376C6.08209 22.1123 5.94121 21.7946 5.96056 21.4734C5.96837 21.3288 5.99552 21.1675 5.84139 21.0483C5.82305 21.0344 5.80845 21.0066 5.81049 20.9855C5.86413 20.4152 5.56911 19.8618 5.79454 19.2727C5.99858 18.738 6.04135 18.1619 6.10043 17.5983C6.1208 17.4058 6.05832 17.2082 6.03524 17.013C5.9799 16.5381 5.95817 16.0641 6.04135 15.5925C6.11706 15.1543 5.95851 14.7255 5.97413 14.2879C5.98024 14.1106 6.02439 14.0071 6.20772 13.9276C6.69525 13.7154 7.20687 13.601 7.75958 13.6217C7.7735 13.6228 7.79183 13.6177 7.80031 13.6241C8.19006 13.8872 8.55707 13.6082 8.92916 13.579C9.39801 13.5426 9.45403 13.5583 9.46761 13.946C9.47677 14.1768 9.51819 14.4063 9.5552 14.6355C9.65841 15.271 9.62038 15.9079 9.58371 16.477Z" fill="white"/>
<path d="M13.9297 32.8544L13.9321 32.8406L13.9287 32.8507L13.9297 32.8544Z" fill="white"/>
<path d="M14.5756 36.422C14.593 36.0506 14.504 35.7175 14.5315 35.3087C14.56 34.9502 14.4836 34.4267 14.3343 34.239C14.1608 34.0234 14.2005 33.9012 14.212 33.7732C14.226 33.5837 14.262 33.4646 14.0688 33.3695C14.0148 33.342 13.9486 33.1101 13.8865 32.971L13.9286 32.8491C13.8929 32.6566 13.9109 32.3802 13.6648 32.3941C13.6203 32.3972 13.5816 32.5242 13.5205 32.4298C13.4424 32.3096 13.5463 32.3035 13.5816 32.2638C13.6525 32.1921 13.5001 32.0536 13.4971 32.001C13.4763 31.8245 13.3535 31.6924 13.2339 31.5698C13.1671 31.4955 13.13 31.4778 13.0975 31.4357C13.0645 31.396 13.0448 31.3495 13.0476 31.2877C13.0102 31.325 12.9732 31.4099 12.9101 31.3284C12.8598 31.2646 12.9535 31.2701 12.9865 31.247C12.2535 30.257 11.2502 29.599 10.152 29.2337C10.1336 29.2904 10.2511 29.4076 10.0664 29.3916C9.94656 29.3817 9.8902 29.338 9.85081 29.2643L9.85454 29.2663L9.85048 29.2633C9.84811 29.2612 9.84674 29.2605 9.84538 29.2592C9.72384 29.1967 9.57344 29.157 9.49264 29.0596L9.49434 29.0667C9.27027 28.9411 9.0316 28.8722 8.76068 28.8284C7.63557 28.6593 6.47109 28.7734 5.43256 29.1675C5.17827 29.2724 4.84523 29.3471 4.66665 29.5002C4.58653 29.5298 4.50129 29.5539 4.42253 29.5865C3.63557 29.9093 2.9559 30.3704 2.38486 30.9703C1.81416 31.5705 1.36907 32.2889 1.04994 33.1258C0.946731 33.397 0.864575 33.6802 0.794299 33.9704C0.739639 34.0913 0.693792 34.2295 0.664934 34.4026C0.615367 34.7778 0.515571 35.0524 0.270791 35.1346C0.115639 35.1875 -0.0255971 35.4021 0.00393947 35.7141C0.0810062 36.3042 0.0198823 36.8786 0.189293 37.4496C0.302008 37.8594 0.454448 38.2556 0.618767 38.645L0.897492 39.2168C1.00749 39.4184 1.14533 39.637 1.27672 39.8418L1.37823 39.9966L1.44104 40.0842L1.56767 40.2566L1.63116 40.3432L1.66307 40.387L1.67902 40.4091L1.77919 40.5323L1.99273 40.7676C2.27078 41.0864 2.59398 41.3678 2.92805 41.6299C3.2611 41.8737 3.55205 42.0414 3.88137 42.0611L3.86475 42.0601C3.99036 42.0903 4.12411 42.1239 4.1713 42.239C4.26636 42.4525 4.53423 42.5785 4.7892 42.6168C5.03839 42.6393 5.2757 42.7031 5.51436 42.7635C5.75541 42.8124 5.99714 42.8749 6.23989 42.8959L6.37331 42.9146C6.47143 42.9937 6.62387 43.0765 6.77189 43.0745C7.05334 43.0745 7.33816 43.0735 7.623 43.0735C7.90683 43.0517 8.19235 43.0371 8.44596 42.9268L8.44766 42.9258C8.93993 43.0636 9.4468 42.8742 9.84741 42.606C10.0294 42.4797 10.2134 42.3704 10.3675 42.3863C10.648 42.3996 10.8547 42.1976 11.1124 42.1001C11.0825 42.093 11.0394 42.095 11.0248 42.077C10.9902 42.0455 10.8248 42.0981 10.8761 42.0434C10.9213 41.9939 11.0184 42.0159 11.0638 42.0434C11.0849 42.0577 11.0947 42.0801 11.1097 42.0988C11.4105 41.8927 11.7951 41.6065 11.899 41.4921C12.0202 41.3906 12.1408 41.2894 12.2623 41.1862C12.3838 41.0731 12.5108 40.9597 12.6436 40.8481C13.329 40.2485 13.7075 39.3845 14.1105 38.569C14.227 38.3456 14.2816 38.0991 14.3254 37.8496C14.3787 37.6031 14.4062 37.3515 14.4816 37.1023C14.5285 36.9431 14.4786 36.8959 14.431 36.7971C14.3278 36.5938 14.373 36.4943 14.5756 36.422ZM8.80481 42.7985C8.7196 42.8626 8.5984 42.8925 8.47584 42.9187C8.58176 42.8728 8.61267 42.7863 8.75831 42.7645C8.81569 42.7564 8.83741 42.7744 8.80481 42.7985ZM13.7221 32.8178C13.7181 32.8029 13.7249 32.7771 13.733 32.7771C13.8128 32.7849 13.8457 32.8796 13.8725 32.9679C13.8118 32.958 13.7622 32.9394 13.7221 32.8178Z" fill="white"/>
<path d="M14.5771 36.4237V36.4319L14.5856 36.4207L14.5771 36.4237Z" fill="white"/>
<path d="M30.3229 7.0728C29.9987 6.49293 29.5859 6.06822 29.0875 5.79764C28.5888 5.52671 28.0103 5.39159 27.3543 5.39159C26.8509 5.39159 26.38 5.49615 25.9393 5.70461C25.4983 5.91374 25.113 6.21114 24.786 6.5975C24.4567 6.98453 24.1973 7.45405 24.0082 8.00642C23.8188 8.55981 23.7241 9.17601 23.7241 9.85637C23.7241 10.5289 23.8188 11.1363 24.0082 11.6771C24.1973 12.2186 24.4587 12.6803 24.7914 13.0633C25.1242 13.4463 25.5081 13.7396 25.9454 13.9443C26.3817 14.1494 26.8509 14.2515 27.3543 14.2515C28.0968 14.2515 28.7422 14.0723 29.2905 13.7131C29.8392 13.3532 30.2761 12.8253 30.601 12.13L32.3875 13.011C32.1552 13.506 31.869 13.9508 31.5288 14.3453C31.189 14.7398 30.8047 15.0755 30.3745 15.3539C29.9458 15.6323 29.4738 15.8469 28.9602 15.9976C28.4458 16.1483 27.903 16.224 27.3313 16.224C26.4961 16.224 25.7251 16.0672 25.0165 15.7542C24.3104 15.4412 23.6993 15.0022 23.1849 14.4379C22.6713 13.8737 22.2707 13.2011 21.9851 12.4199C21.6989 11.6394 21.5557 10.7846 21.5557 9.85705C21.5557 8.92919 21.7067 8.07501 22.0086 7.29449C22.3087 6.51398 22.7232 5.84313 23.2488 5.28261C23.7746 4.72176 24.3881 4.28312 25.0926 3.96602C25.7957 3.64927 26.5501 3.49072 27.3543 3.49072C28.1114 3.49072 28.8291 3.62245 29.5051 3.88489C30.1817 4.14766 30.7751 4.54623 31.2854 5.07958H32.5025V7.07415H30.3229V7.0728Z" fill="white"/>
<path d="M34.4512 9.87977C34.458 8.92849 34.6121 8.06276 34.9095 7.28191C35.2069 6.5014 35.6228 5.83055 36.1561 5.27003C36.6888 4.70951 37.3237 4.27869 38.0577 3.97687C38.7924 3.6754 39.6004 3.52466 40.481 3.52466C41.3705 3.52466 42.1843 3.6754 42.9224 3.97687C43.6608 4.27869 44.293 4.70578 44.8185 5.25815C45.3441 5.81119 45.7538 6.47797 46.0475 7.25848C46.3412 8.03934 46.4885 8.9054 46.4885 9.85601C46.4885 10.7917 46.3412 11.6516 46.0475 12.4366C45.7538 13.2215 45.3441 13.8961 44.8185 14.46C44.293 15.0246 43.6608 15.4632 42.9224 15.7762C42.184 16.0896 41.3705 16.2461 40.481 16.2461C39.5776 16.2461 38.757 16.0913 38.0227 15.7823C37.2887 15.4731 36.6586 15.0378 36.1334 14.4776C35.6072 13.9175 35.1967 13.2466 34.9034 12.4654C34.609 11.6846 34.4576 10.8226 34.4512 9.87977ZM36.7353 9.87977C36.7353 10.5676 36.8338 11.1899 37.031 11.747C37.2286 12.3038 37.4985 12.7771 37.8421 13.1672C38.1877 13.5579 38.5849 13.8597 39.0375 14.0723C39.4897 14.2848 39.9711 14.3907 40.4807 14.3907C41.0144 14.3907 41.5111 14.2865 41.9715 14.078C42.4311 13.8692 42.8307 13.5698 43.1719 13.1791C43.5118 12.7893 43.7783 12.3154 43.9718 11.7586C44.1653 11.2018 44.261 10.5754 44.261 9.88012C44.261 9.15358 44.1656 8.50785 43.9718 7.94326C43.7783 7.37901 43.5131 6.90744 43.177 6.52856C42.8412 6.15002 42.4406 5.86348 41.9772 5.67031C41.5135 5.47747 41.0144 5.38037 40.4807 5.38037C39.9711 5.38037 39.4897 5.47747 39.0375 5.67031C38.5849 5.86348 38.1877 6.15002 37.8421 6.52856C37.4985 6.90744 37.2286 7.37935 37.031 7.94326C36.8338 8.50751 36.7353 9.1529 36.7353 9.87977Z" fill="white"/>
<path d="M56.7286 13.892H58.4213V8.40669C58.4213 7.48732 58.1877 6.78896 57.7196 6.31332C57.2514 5.83802 56.5816 5.60004 55.708 5.60004C55.2052 5.60004 54.699 5.72022 54.1884 5.95956C53.6781 6.19925 53.1947 6.49699 52.7391 6.85211V13.8917H54.4318V15.8862H48.8188V13.8917H50.4889V5.86688H48.8188V3.87231H52.6467V5.28702H52.6701C52.9248 5.06295 53.1974 4.85041 53.487 4.64943C53.7769 4.4481 54.0804 4.27428 54.3972 4.12728C54.7146 3.98027 55.0446 3.86417 55.3885 3.77929C55.7338 3.69475 56.0937 3.65198 56.4732 3.65198C57.1149 3.65198 57.6948 3.74059 58.2125 3.91849C58.7306 4.09639 59.1713 4.36731 59.5345 4.73057C59.8975 5.09384 60.1786 5.55963 60.3755 6.12796C60.5734 6.69628 60.6719 7.36714 60.6719 8.14018V13.892H62.3408V15.8866H56.7289V13.892H56.7286Z" fill="white"/>
<path d="M66.7008 10.1576C66.7008 10.4984 66.7259 10.8091 66.7758 11.0908C66.8261 11.3737 66.8977 11.6419 66.9904 11.8972C67.2766 12.6705 67.7346 13.2521 68.3647 13.6425C68.9945 14.033 69.7081 14.2288 70.5046 14.2288C71.131 14.2288 71.7394 14.1416 72.3321 13.9674C72.9232 13.7933 73.5428 13.5213 74.1922 13.1499L75.0621 14.623C74.2741 15.1642 73.481 15.5658 72.6852 15.8289C71.8884 16.0914 71.0614 16.2234 70.2031 16.2234C69.391 16.2234 68.639 16.0876 67.9481 15.8174C67.2556 15.5468 66.6597 15.1448 66.1617 14.6111C65.6619 14.0781 65.2729 13.413 64.9901 12.6169C64.7079 11.8208 64.5674 10.8929 64.5674 9.83367C64.5674 8.97541 64.6866 8.1657 64.9266 7.4042C65.1653 6.6427 65.5241 5.97762 65.9994 5.40929C66.4737 4.84165 67.0641 4.39113 67.7682 4.05876C68.4706 3.72639 69.2905 3.55969 70.2259 3.55969C71.1306 3.55969 71.8863 3.69719 72.4927 3.97151C73.1001 4.24617 73.5951 4.60909 73.9773 5.06131C74.3606 5.51386 74.6499 6.0299 74.8475 6.60909C75.0451 7.18896 75.1819 7.78071 75.2596 8.38367C75.2977 8.67767 75.3231 8.97507 75.3347 9.27655C75.3465 9.57802 75.352 9.87203 75.352 10.1579H66.7008V10.1576ZM70.0751 5.36821C69.572 5.36821 69.1344 5.44019 68.7589 5.58346C68.3841 5.72605 68.0646 5.9311 67.8022 6.19761C67.5394 6.46446 67.3292 6.79107 67.17 7.17776C67.0115 7.56445 66.894 7.99731 66.8162 8.47669H73.0437C73.0128 8.0282 72.9415 7.61435 72.8298 7.23547C72.7168 6.85692 72.5447 6.52829 72.3134 6.2499C72.0812 5.97151 71.7838 5.75491 71.4199 5.6001C71.057 5.4463 70.6081 5.36821 70.0751 5.36821Z" fill="white"/>
<path d="M86.9603 7.0728C86.636 6.49293 86.2242 6.06822 85.7258 5.79764C85.2261 5.52671 84.6479 5.39159 83.992 5.39159C83.4892 5.39159 83.0183 5.49615 82.5766 5.70461C82.137 5.91374 81.7516 6.21114 81.4233 6.5975C81.095 6.98453 80.8357 7.45405 80.6462 8.00642C80.4561 8.55981 80.3614 9.17601 80.3614 9.85637C80.3614 10.5289 80.4561 11.1363 80.6462 11.6771C80.8357 12.2186 81.0964 12.6803 81.4295 13.0633C81.7615 13.4459 82.1465 13.7396 82.5831 13.9443C83.0197 14.1494 83.4892 14.2515 83.992 14.2515C84.7345 14.2515 85.3796 14.0723 85.9278 13.7131C86.4772 13.3532 86.9134 12.8253 87.2393 12.13L89.0248 13.011C88.7929 13.506 88.5074 13.9508 88.1662 14.3453C87.8267 14.7398 87.442 15.0755 87.0122 15.3539C86.5834 15.6323 86.1115 15.8469 85.5978 15.9976C85.0832 16.1483 84.541 16.224 83.9686 16.224C83.1334 16.224 82.3631 16.0672 81.6549 15.7542C80.9484 15.4412 80.3366 15.0022 79.8226 14.4379C79.3093 13.8737 78.909 13.2011 78.6231 12.4199C78.3376 11.6394 78.1943 10.7846 78.1943 9.85705C78.1943 8.92919 78.3447 8.07501 78.6462 7.29449C78.9473 6.51398 79.3609 5.84313 79.8868 5.28261C80.4123 4.72176 81.0268 4.28312 81.7309 3.96602C82.434 3.64927 83.1877 3.49072 83.9923 3.49072C84.7491 3.49072 85.4671 3.62245 86.1438 3.88489C86.82 4.14766 87.4128 4.54623 87.9238 5.07958H89.1412V7.07415H86.9603V7.0728Z" fill="white"/>
<path d="M94.7304 3.87268H97.5483V5.62383H94.707L94.6717 12.5585C94.6717 13.03 94.726 13.413 94.8343 13.7067C94.9426 14.0007 95.1168 14.2034 95.3561 14.3151C95.5962 14.4271 95.8664 14.4834 96.1682 14.4834C96.4931 14.4834 96.7793 14.4549 97.0265 14.3965C97.2736 14.3388 97.5435 14.24 97.8389 14.1008L98.337 15.5505C97.9655 15.7437 97.5751 15.8968 97.1664 16.0088C96.7559 16.1205 96.2724 16.1765 95.7157 16.1765C95.1901 16.1765 94.7325 16.1127 94.3421 15.9854C93.9516 15.8581 93.6233 15.6435 93.3572 15.342C93.0896 15.0406 92.8903 14.6366 92.7593 14.13C92.6279 13.6238 92.5617 12.9917 92.5617 12.2343L92.597 5.62451H90.6836V3.87337H92.6204V0.997108L94.7311 0V3.87268H94.7304Z" fill="white"/>
<path d="M107.15 14.7731C106.693 15.1985 106.19 15.5461 105.637 15.817C105.083 16.0873 104.455 16.2231 103.752 16.2231C103.164 16.2231 102.625 16.1301 102.134 15.9443C101.643 15.7586 101.22 15.5054 100.865 15.1849C100.509 14.8641 100.232 14.4913 100.036 14.0655C99.8379 13.6408 99.7397 13.1886 99.7397 12.7092C99.7397 12.1983 99.8151 11.7468 99.9662 11.3519C100.116 10.9574 100.318 10.6159 100.568 10.3256C100.82 10.036 101.114 9.79191 101.45 9.595C101.787 9.39809 102.138 9.23921 102.505 9.1197C102.873 8.99986 103.247 8.91498 103.63 8.86474C104.013 8.81483 104.378 8.78903 104.726 8.78903C105.282 8.78903 105.75 8.80668 106.129 8.84131C106.509 8.87628 106.852 8.92483 107.161 8.98628L107.173 8.0007C107.173 7.57531 107.112 7.20627 106.987 6.89325C106.864 6.58023 106.69 6.32119 106.465 6.11613C106.241 5.91141 105.973 5.75864 105.66 5.65849C105.346 5.55834 104.997 5.50775 104.61 5.50775C104.246 5.50775 103.899 5.53287 103.567 5.58346C103.235 5.6337 102.923 5.69889 102.633 5.78003C102.343 5.86117 102.076 5.95453 101.833 6.05876C101.589 6.16298 101.383 6.27298 101.213 6.38943L100.505 4.89291C100.791 4.70755 101.105 4.53542 101.444 4.37687C101.784 4.21901 102.142 4.08355 102.517 3.97151C102.892 3.85914 103.275 3.77052 103.665 3.70432C104.055 3.63879 104.44 3.6062 104.82 3.6062C105.514 3.6062 106.141 3.68938 106.697 3.8554C107.255 4.02141 107.725 4.27875 108.113 4.6264C108.499 4.97405 108.797 5.41711 109.005 5.95454C109.214 6.49163 109.319 7.13531 109.319 7.88527L109.307 13.8921H110.64V15.8866H107.15V14.7731H107.15ZM104.228 14.4142C104.513 14.4142 104.799 14.3789 105.085 14.3093C105.371 14.24 105.642 14.1457 105.897 14.0255C106.153 13.906 106.388 13.7668 106.605 13.6079C106.821 13.4497 107.003 13.2854 107.15 13.1153L107.161 10.402H104.656C104.239 10.402 103.858 10.4485 103.514 10.5412C103.17 10.6342 102.872 10.7693 102.621 10.9469C102.37 11.1251 102.175 11.3455 102.036 11.6079C101.896 11.8707 101.827 12.1722 101.827 12.5127C101.827 12.8298 101.885 13.1058 102.001 13.3417C102.117 13.5773 102.281 13.7743 102.493 13.9331C102.706 14.0917 102.96 14.2112 103.254 14.2923C103.547 14.3731 103.872 14.4142 104.228 14.4142Z" fill="white"/>
<path d="M122.461 15.1729C122.128 15.4825 121.76 15.7362 121.357 15.9331C120.954 16.13 120.497 16.2291 119.984 16.2291C119.557 16.2291 119.163 16.1615 118.805 16.0261C118.447 15.891 118.14 15.7063 117.88 15.4727C117.621 15.2388 117.42 14.9668 117.276 14.6569C117.132 14.3476 117.061 14.0179 117.061 13.6686C117.061 13.2962 117.116 12.9675 117.226 12.68C117.335 12.3924 117.482 12.1432 117.664 11.9317C117.848 11.7209 118.062 11.5433 118.307 11.3997C118.552 11.2558 118.808 11.1407 119.076 11.0527C119.343 10.9662 119.617 10.904 119.895 10.8674C120.174 10.831 120.441 10.8124 120.694 10.8124C121.099 10.8124 121.44 10.8253 121.717 10.8507C121.993 10.8762 122.243 10.9112 122.469 10.956L122.477 10.2376C122.477 9.92764 122.432 9.65909 122.342 9.4306C122.251 9.2028 122.125 9.01404 121.961 8.86466C121.799 8.71561 121.603 8.60426 121.375 8.53093C121.146 8.45827 120.891 8.42093 120.609 8.42093C120.345 8.42093 120.092 8.43926 119.849 8.47626C119.607 8.51293 119.38 8.5608 119.17 8.61987C118.958 8.67895 118.763 8.74684 118.586 8.82289C118.409 8.89894 118.258 8.97873 118.133 9.0636L117.618 7.97381C117.827 7.83869 118.055 7.71307 118.303 7.5973C118.551 7.48255 118.811 7.38375 119.085 7.30193C119.358 7.22011 119.636 7.15594 119.922 7.10773C120.206 7.05986 120.486 7.03577 120.762 7.03577C121.269 7.03577 121.725 7.09653 122.131 7.21773C122.536 7.33893 122.88 7.52635 123.162 7.77927C123.443 8.03322 123.66 8.35574 123.813 8.74719C123.964 9.13829 124.04 9.60782 124.04 10.1544L124.032 14.5313H125.004V15.9847H122.461V15.1729H122.461ZM120.331 14.9108C120.539 14.9108 120.748 14.886 120.956 14.8341C121.164 14.7842 121.362 14.7149 121.548 14.6277C121.734 14.5404 121.906 14.4389 122.064 14.3235C122.22 14.2084 122.353 14.0882 122.461 13.9646L122.469 11.987H120.644C120.339 11.987 120.062 12.021 119.812 12.0886C119.561 12.1561 119.343 12.2546 119.161 12.3843C118.978 12.5143 118.835 12.6749 118.734 12.8657C118.632 13.0572 118.583 13.2768 118.583 13.525C118.583 13.7562 118.624 13.9568 118.709 14.129C118.793 14.3011 118.913 14.4447 119.068 14.5601C119.224 14.6756 119.408 14.7628 119.622 14.8219C119.835 14.8816 120.072 14.9108 120.331 14.9108Z" fill="white"/>
<path d="M131.666 8.97471C131.557 8.80904 131.413 8.67358 131.24 8.56935C131.065 8.46512 130.871 8.38908 130.656 8.34121C130.442 8.29334 130.234 8.26923 130.03 8.26923C129.805 8.26923 129.599 8.29469 129.41 8.34562C129.222 8.3962 129.059 8.46988 128.924 8.56494C128.789 8.66135 128.683 8.77814 128.607 8.91598C128.53 9.05449 128.493 9.20761 128.493 9.37668C128.493 9.66933 128.582 9.90189 128.759 10.0737C128.936 10.2458 129.234 10.405 129.65 10.551L131.332 11.1424C132.053 11.3845 132.58 11.7145 132.912 12.1311C133.245 12.548 133.411 13.0467 133.411 13.6269C133.411 14.0153 133.333 14.3714 133.179 14.6956C133.023 15.0199 132.803 15.2955 132.519 15.5237C132.235 15.7518 131.892 15.929 131.493 16.0557C131.092 16.183 130.647 16.2461 130.158 16.2461C129.475 16.2461 128.921 16.1365 128.493 15.9165C128.064 15.6972 127.735 15.4072 127.504 15.046H126.625V13.5929H128.374C128.374 13.8353 128.427 14.0424 128.53 14.2142C128.635 14.3857 128.773 14.5255 128.945 14.6325C129.117 14.7394 129.311 14.8185 129.528 14.8691C129.745 14.9197 129.966 14.9448 130.192 14.9448C130.411 14.9448 130.622 14.9187 130.825 14.8647C131.028 14.8118 131.206 14.733 131.362 14.6284C131.515 14.5239 131.638 14.3989 131.729 14.2522C131.819 14.1059 131.864 13.9396 131.864 13.7535C131.864 13.4721 131.772 13.2327 131.589 13.0351C131.406 12.8382 131.095 12.6607 130.656 12.5031L128.983 11.8774C128.3 11.6354 127.795 11.3271 127.465 10.9523C127.136 10.5778 126.971 10.1086 126.971 9.54541C126.971 9.17366 127.04 8.83008 127.178 8.51434C127.316 8.19895 127.516 7.92735 127.778 7.6992C128.04 7.47106 128.359 7.29248 128.737 7.16245C129.114 7.03276 129.545 6.96826 130.03 6.96826C130.656 6.96826 131.179 7.05585 131.602 7.23002C132.024 7.40452 132.404 7.70328 132.742 8.12562H133.562V9.57936H131.829C131.831 9.34272 131.776 9.14107 131.666 8.97471Z" fill="white"/>
<path d="M32.6125 22.9564C32.6441 23.4157 32.6682 23.8435 32.6841 24.2397C32.6994 24.6355 32.7228 25.0874 32.7551 25.5936C33.4687 24.8807 34.1728 24.2713 34.8702 23.764C35.5665 23.2575 36.3908 22.9404 37.3411 22.8138C37.8486 22.7347 38.3589 22.6556 38.8746 22.5765C39.3882 22.4974 39.8999 22.4576 40.4071 22.4576C40.8029 22.4576 41.192 22.4926 41.5712 22.5642C41.9518 22.6352 42.3249 22.7744 42.6885 22.9795C43.4643 23.376 44.1895 23.8594 44.8627 24.4295C45.5359 24.9995 46.2377 25.5542 46.9659 26.0927C47.2192 25.7759 47.4887 25.4357 47.7746 25.0711C48.0591 24.7062 48.368 24.3578 48.7007 24.0248C49.6042 23.3597 50.4757 22.936 51.3149 22.7533C52.1548 22.5717 52.9231 22.4801 53.6194 22.4801C53.9681 22.4801 54.2896 22.4879 54.5829 22.5042C54.8759 22.5198 55.1329 22.5279 55.3546 22.5279H55.4976C56.1786 22.5279 56.7995 22.623 57.3631 22.8131C57.9253 23.0036 58.4991 23.2728 59.0854 23.6208C59.4806 23.8425 59.8344 24.1521 60.1426 24.5476C60.4516 24.9435 60.7177 25.3475 60.9398 25.7596C61.3037 26.4244 61.6368 27.1061 61.9382 27.8034C62.238 28.5004 62.5235 29.2056 62.7924 29.9185C62.8878 30.1721 62.9398 30.4451 62.9465 30.7384C62.9554 31.0317 62.9595 31.3125 62.9595 31.5821C62.9747 33.4514 62.9863 35.3091 62.9948 37.155C63.0022 39.0005 62.99 40.8582 62.9595 42.7275C62.9435 43.6781 62.9031 44.6165 62.8403 45.5437C62.7768 46.4705 62.7211 47.4093 62.6739 48.3595C62.6583 48.7401 62.5429 49.0175 62.3293 49.192C62.1154 49.3658 61.8415 49.4609 61.5094 49.4768C61.2399 49.4921 60.9785 49.5002 60.7255 49.5002C60.4716 49.5002 60.2098 49.5002 59.941 49.5002C59.354 49.5002 58.7765 49.4965 58.2058 49.4884C57.6351 49.4806 57.0565 49.4531 56.4719 49.4059C56.0591 49.374 55.7423 49.342 55.5206 49.3105C55.299 49.2786 55.1289 49.2039 55.0097 49.0847C54.8905 48.9655 54.8084 48.7873 54.7595 48.5496C54.713 48.3123 54.6566 47.9793 54.5935 47.5519C54.2448 45.413 54.0628 43.2819 54.0476 41.159C54.0316 39.0365 54.0153 36.9051 54 34.7666C54 34.4495 54.0082 33.9942 54.0228 33.4001C54.0394 32.8056 53.9841 32.2037 53.8578 31.5933C53.7298 30.9842 53.4813 30.4498 53.1092 29.9891C52.7361 29.5298 52.1542 29.2928 51.3614 29.2762C51.3146 29.2612 51.227 29.2528 51.1007 29.2528C50.9418 29.2528 50.7683 29.2884 50.5775 29.3594C50.3881 29.431 50.2017 29.5142 50.019 29.6092C49.8364 29.7043 49.6741 29.7997 49.5312 29.8944C49.3896 29.9888 49.2782 30.0689 49.1995 30.1317C48.882 30.3701 48.6485 30.5992 48.4988 30.8206C48.347 31.0429 48.2485 31.2928 48.2017 31.5698C48.1535 31.8472 48.1416 32.1606 48.166 32.5089C48.1891 32.8572 48.2017 33.2853 48.2017 33.7919C48.2166 34.3307 48.221 34.9051 48.2132 35.5148C48.2051 36.1249 48.1969 36.7309 48.1891 37.3329C48.1813 37.9351 48.1776 38.5293 48.1776 39.1153C48.1776 39.7016 48.1776 40.2482 48.1776 40.7554C48.1776 41.9277 48.1538 43.0922 48.1056 44.2488C48.0584 45.4055 47.9946 46.5619 47.9162 47.7182C47.8839 48.3045 47.8085 48.6963 47.6901 48.8946C47.5709 49.0928 47.3054 49.192 46.8936 49.192C46.8155 49.192 46.731 49.1879 46.6451 49.1794C46.5571 49.1723 46.4583 49.1601 46.348 49.1441C45.9355 49.1125 45.5315 49.0891 45.1357 49.0728C44.7391 49.0572 44.3433 49.0494 43.9481 49.0494C43.4405 49.0494 42.9336 49.062 42.4261 49.085C41.9192 49.1088 41.413 49.1366 40.9055 49.1682C40.8267 49.1838 40.7242 49.1923 40.5975 49.1923C40.217 49.1923 39.9586 49.101 39.8248 48.919C39.6901 48.7367 39.6306 48.4081 39.6466 47.9324C39.6788 46.8715 39.7223 45.8099 39.778 44.7486C39.833 43.6873 39.8761 42.6175 39.9083 41.54C39.9396 39.9243 39.9474 38.3198 39.9314 36.7279C39.9162 35.1353 39.7892 33.5396 39.5522 31.9396C39.5193 31.7172 39.4528 31.5036 39.3499 31.2976C39.2467 31.0922 39.1716 30.8783 39.1241 30.6559C38.9971 30.1012 38.7598 29.6734 38.4115 29.3729C38.0625 29.0718 37.6418 28.9214 37.1523 28.9214C36.8977 28.9214 36.6325 28.9652 36.3548 29.0518C36.0774 29.1394 35.796 29.2775 35.5108 29.468C34.9886 29.8007 34.5493 30.1966 34.1935 30.6562C33.8364 31.1159 33.6184 31.7175 33.5393 32.4624C33.3964 33.7929 33.3132 35.1122 33.2898 36.4193C33.266 37.7264 33.2698 39.045 33.302 40.3762C33.3173 41.1842 33.3173 41.9963 33.302 42.8121C33.285 43.6282 33.285 44.44 33.302 45.2473C33.3173 45.6917 33.3455 46.127 33.3849 46.5551C33.4236 46.9825 33.4599 47.4106 33.4925 47.838C33.523 48.2818 33.432 48.662 33.2185 48.9791C33.0046 49.2959 32.699 49.4541 32.3032 49.4541C32.2248 49.4541 32.1687 49.4459 32.1368 49.4307C31.7719 49.3987 31.4168 49.3712 31.0684 49.3478C30.7188 49.324 30.3701 49.3122 30.0228 49.3122C29.4354 49.3122 28.8542 49.3319 28.2754 49.3712C27.6975 49.4103 27.1156 49.4463 26.529 49.4782C26.4495 49.4935 26.3697 49.5016 26.291 49.5016C26.2115 49.5016 26.1406 49.5016 26.0778 49.5016C25.8551 49.5016 25.6802 49.4782 25.5553 49.431C25.4276 49.3831 25.3288 49.304 25.2579 49.1937C25.1862 49.0827 25.1346 48.9319 25.1031 48.7418C25.0701 48.5517 25.0392 48.3062 25.0083 48.0047C24.8332 46.7221 24.7822 45.4548 24.8532 44.2027C24.9248 42.9513 24.9608 41.6921 24.9608 40.4244C24.9442 38.3497 24.9489 36.2896 24.972 34.2455C24.9961 32.2017 25.0155 30.1422 25.0314 28.0665C25.0484 27.4646 25.0511 26.8633 25.043 26.2611C25.0358 25.6588 25.0314 25.0572 25.0314 24.4549C25.0314 24.1226 25.0484 23.8611 25.0793 23.6703C25.1109 23.4802 25.174 23.3424 25.2701 23.2545C25.3641 23.1679 25.5074 23.1122 25.6975 23.0888C25.8876 23.0643 26.1569 23.045 26.5055 23.029C27.1394 23.0131 27.7688 22.9808 28.3952 22.9336C29.0199 22.8868 29.6493 22.8467 30.2838 22.8151H30.4743C30.8226 22.8151 31.1716 22.8311 31.5206 22.8627C31.8676 22.8936 32.2316 22.9245 32.6125 22.9564Z" fill="white"/>
<path d="M66.6193 48.6219C66.5867 47.9412 66.5599 47.3264 66.5354 46.7802C66.5113 46.2332 66.4842 45.6985 66.4533 45.1757C66.4367 45.049 66.4251 44.9224 66.4173 44.7954C66.4088 44.6691 66.4132 44.5425 66.4295 44.4149C66.509 42.8314 66.5952 41.2582 66.6909 39.6975C66.7853 38.1375 66.8488 36.5653 66.8811 34.9808C66.913 33.3963 66.9086 31.8194 66.8692 30.2512C66.8298 28.6831 66.7857 27.1068 66.7388 25.5223C66.7388 25.3957 66.7273 25.1977 66.7032 24.9285C66.6801 24.6586 66.6675 24.3897 66.6675 24.1202C66.6675 23.8513 66.6869 23.6129 66.7276 23.4069C66.7667 23.2015 66.8583 23.0983 67.0002 23.0983C67.0491 23.0983 67.0793 23.1064 67.0956 23.1217C67.444 23.249 67.7841 23.3318 68.1175 23.3719C68.4502 23.4113 68.7901 23.431 69.1391 23.431C69.7726 23.431 70.4027 23.3875 71.0284 23.3003C71.6544 23.213 72.2917 23.1696 72.9415 23.1696C73.242 23.1696 73.539 23.1852 73.833 23.2171C74.126 23.249 74.4142 23.3125 74.6994 23.4072C74.8586 23.471 74.9649 23.5542 75.0203 23.6571C75.0756 23.76 75.1038 23.8706 75.1038 23.9895C75.1038 24.1086 75.0953 24.2315 75.0803 24.3578C75.0644 24.4848 75.0644 24.6114 75.0803 24.7381C75.2552 25.8472 75.357 26.9526 75.3893 28.0533C75.4216 29.155 75.4097 30.2556 75.354 31.3566C75.2983 32.4576 75.2107 33.5583 75.0916 34.6596C74.9734 35.7613 74.8583 36.8576 74.7473 37.9511C74.6047 39.4717 74.5096 40.9849 74.4621 42.4895C74.4139 43.9952 74.5249 45.5162 74.7952 47.0531C74.8267 47.2908 74.8339 47.5281 74.8183 47.7661C74.803 48.0027 74.7952 48.2254 74.7952 48.4312C74.1606 48.843 73.5275 49.1322 72.8936 49.2982C72.2598 49.4649 71.61 49.5481 70.9449 49.5481C70.4384 49.5481 69.9274 49.5084 69.4124 49.4293C68.8974 49.3498 68.3776 49.247 67.8561 49.1203C67.6018 49.0412 67.3645 48.9499 67.1425 48.847C66.9198 48.7449 66.7463 48.6691 66.6193 48.6219Z" fill="white"/>
<path d="M103.311 49.691C102.867 49.5321 102.432 49.4211 102.004 49.358C101.576 49.2948 101.148 49.2639 100.721 49.2639C99.9757 49.2639 99.2465 49.3155 98.5335 49.4177C97.8209 49.5209 97.1073 49.5722 96.3954 49.5722C96.1418 49.5722 95.8956 49.56 95.6593 49.5369C95.4206 49.5128 95.1837 49.4853 94.946 49.4534C94.9131 49.1526 94.8785 48.8637 94.8384 48.5859C94.799 48.3089 94.7793 48.0353 94.7793 47.7664C94.7793 45.6431 94.8034 43.5124 94.8503 41.3732C94.8656 40.9139 94.9009 40.4586 94.9576 40.0071C95.0119 39.5559 95.0401 39.1006 95.0401 38.6406C95.0092 37.7694 94.9762 36.902 94.946 36.0383C94.9131 35.1746 94.8503 34.3154 94.7552 33.4602C94.707 33.0483 94.6079 32.6362 94.4582 32.2244C94.3084 31.8122 94.1373 31.4164 93.9472 31.0358C93.7085 30.5292 93.4088 30.1531 93.0438 29.9069C92.6792 29.6615 92.2915 29.5386 91.8793 29.5386C91.1345 29.5386 90.4378 29.911 89.789 30.6559C89.2978 31.2262 88.9725 31.8244 88.8146 32.4501C88.6554 33.0762 88.5929 33.7453 88.6235 34.4586C88.7036 35.8839 88.6833 37.2979 88.5648 38.7C88.4466 40.1018 88.3152 41.5162 88.1737 42.9424C88.0935 43.7664 88.0698 44.5904 88.1014 45.4136C88.1333 46.2376 88.1652 47.0691 88.1954 47.909C88.2124 48.02 88.2124 48.202 88.1954 48.4552C88.1808 48.7088 88.2276 48.9302 88.3387 49.1207C88.1808 49.1682 88.0504 49.2001 87.9469 49.2157C87.8437 49.232 87.7449 49.2395 87.6498 49.2395H87.365H87.1277C86.1289 49.3189 85.1389 49.3746 84.157 49.4065C83.1738 49.4377 82.1842 49.4612 81.1857 49.4771C81.1545 49.4924 81.0988 49.5006 81.0194 49.5006C80.4327 49.5006 80.0491 49.3943 79.8671 49.1801C79.6851 48.9665 79.5778 48.5347 79.5469 47.8852C79.4994 46.7126 79.4743 45.5488 79.4743 44.3917C79.4583 42.4114 79.4512 40.4508 79.4512 38.5106C79.4512 36.5696 79.4512 34.609 79.4512 32.6291C79.4356 31.5199 79.4244 30.4108 79.4159 29.3013C79.4081 28.1928 79.42 27.0758 79.4512 25.9507C79.4668 25.5077 79.5072 25.0558 79.5697 24.5958C79.6335 24.1364 79.6967 23.6459 79.7605 23.1227C80.4419 23.1074 81.1192 23.0792 81.7921 23.0395C82.466 23.0005 83.1355 22.9801 83.8002 22.9801C84.4816 22.9801 85.1592 23.0164 85.8318 23.0877C86.505 23.1583 87.1827 23.2975 87.864 23.5029C87.7853 23.8832 87.713 24.2515 87.6498 24.6083C87.586 24.9645 87.5069 25.3726 87.4125 25.8319C87.6977 25.689 87.9275 25.582 88.1014 25.5104C88.2759 25.4398 88.4256 25.3485 88.5525 25.2378C89.3137 24.6039 90.2287 24.1171 91.2971 23.7766C92.3665 23.4361 93.4875 23.2653 94.6602 23.2653C95.6104 23.2653 96.5617 23.3882 97.5116 23.6336C98.4626 23.8794 99.3341 24.2556 100.126 24.7621C100.918 25.2694 101.596 25.9029 102.158 26.6633C102.72 27.4238 103.08 28.3113 103.239 29.3254C103.539 31.2422 103.699 33.1549 103.714 35.064C103.73 36.9733 103.65 38.9017 103.476 40.8504C103.365 42.1181 103.318 43.3855 103.334 44.6532C103.35 45.9209 103.342 47.1957 103.31 48.479V49.691H103.311Z" fill="white"/>
<path d="M129.974 49.5247C129.625 49.4928 129.286 49.4772 128.953 49.4772C128.62 49.4772 128.288 49.4772 127.955 49.4772C127.574 49.4772 127.194 49.4772 126.814 49.4772C126.434 49.4772 126.038 49.4853 125.625 49.5006C125.26 49.5006 124.955 49.5091 124.711 49.5247C124.465 49.5406 124.255 49.5488 124.081 49.5488C123.843 49.5488 123.673 49.521 123.57 49.4653C123.467 49.4093 123.4 49.2952 123.368 49.1207C123.336 48.9469 123.312 48.6926 123.297 48.3599C123.28 48.0275 123.233 47.5841 123.155 47.029C122.33 48.1069 121.349 48.8674 120.207 49.3108C119.067 49.7535 117.846 49.9762 116.548 49.9762C115.787 49.9762 115.039 49.9124 114.302 49.7854C113.566 49.6588 112.817 49.485 112.056 49.2633C111.106 48.9777 110.286 48.6091 109.598 48.1575C108.908 47.7063 108.353 47.1163 107.933 46.3874C107.514 45.6588 107.232 44.7676 107.09 43.7138C106.947 42.6603 106.947 41.397 107.09 39.9236C107.217 38.6403 107.657 37.5827 108.409 36.7513C109.161 35.9192 110.069 35.266 111.13 34.7903C112.191 34.3154 113.329 33.9864 114.541 33.8044C115.752 33.6221 116.889 33.5308 117.951 33.5308C118.806 33.5308 119.554 33.5586 120.196 33.614C120.838 33.6697 121.308 33.7056 121.61 33.7209C121.705 33.7209 121.8 33.7134 121.895 33.6971C121.99 33.6815 122.086 33.6656 122.181 33.6496C122.466 32.9842 122.588 32.3466 122.549 31.7369C122.51 31.1271 122.351 30.5883 122.074 30.1205C121.797 29.6537 121.432 29.2769 120.98 28.992C120.528 28.7068 120.026 28.5639 119.472 28.5639C119.028 28.5639 118.561 28.6753 118.07 28.897C117.831 29.0083 117.583 29.1193 117.321 29.2297C117.059 29.3407 116.826 29.4755 116.62 29.6333C116.414 29.7919 116.252 29.9939 116.133 30.2397C116.013 30.4851 115.962 30.7897 115.979 31.1543C115.994 31.2813 115.958 31.3923 115.871 31.4867C115.784 31.5821 115.677 31.6374 115.55 31.6534C114.663 31.7162 113.795 31.8038 112.948 31.9144C112.1 32.0251 111.249 32.0815 110.394 32.0815C109.982 32.0815 109.566 32.0611 109.146 32.0214C108.727 31.9823 108.31 31.9148 107.9 31.8194C107.708 31.7718 107.59 31.6615 107.542 31.487C107.399 31.0592 107.361 30.6362 107.423 30.2156C107.487 29.796 107.606 29.3804 107.78 28.9679C108.413 27.6055 109.197 26.4013 110.133 25.356C111.067 24.3096 112.248 23.4863 113.673 22.8847C113.959 22.7737 114.244 22.6664 114.529 22.5636C114.814 22.4607 115.107 22.3772 115.409 22.314C116.565 22.0764 117.714 21.8866 118.854 21.7433C118.964 21.728 119.076 21.7155 119.186 21.708C119.297 21.7002 119.408 21.6958 119.519 21.6958C120.248 21.6958 120.956 21.8105 121.647 22.04C122.336 22.2702 123.028 22.4963 123.726 22.7177C124.137 22.8447 124.529 23.0229 124.902 23.2524C125.274 23.4826 125.643 23.7084 126.008 23.9297C126.625 24.2947 127.168 24.718 127.635 25.2011C128.102 25.6846 128.505 26.2034 128.847 26.7574C129.188 27.3122 129.477 27.9026 129.715 28.5279C129.952 29.1543 130.157 29.7997 130.332 30.4648C130.585 31.4473 130.752 32.4376 130.831 33.4351C130.91 34.4335 130.886 35.448 130.76 36.4766C130.617 37.7922 130.495 39.1027 130.392 40.4101C130.287 41.7168 130.197 43.028 130.118 44.3429C130.085 44.7235 130.075 45.2103 130.082 45.8044C130.091 46.3982 130.099 46.9727 130.106 47.5271C130.114 48.0821 130.114 48.5527 130.106 48.9411C130.097 49.3308 130.053 49.5247 129.974 49.5247ZM121.776 38.4743C121.539 38.4424 121.253 38.4189 120.921 38.4026C120.588 38.387 120.215 38.3792 119.803 38.3792C119.266 38.3792 118.706 38.4111 118.127 38.4743C117.55 38.5378 117.011 38.6644 116.512 38.8549C116.012 39.0446 115.577 39.3101 115.205 39.6506C114.832 39.9912 114.591 40.4312 114.48 40.9693C114.338 41.6347 114.321 42.1738 114.433 42.5856C114.542 42.9974 114.725 43.3142 114.979 43.5362C115.232 43.7579 115.533 43.9083 115.882 43.9874C116.23 44.0665 116.579 44.1066 116.927 44.1066C117.307 44.1066 117.656 44.0828 117.972 44.036C118.29 43.9878 118.511 43.9562 118.639 43.9406C119.383 43.8452 120.001 43.6079 120.492 43.2276C120.983 42.847 121.284 42.2852 121.395 41.54C121.473 41.0334 121.542 40.5225 121.597 40.0075C121.654 39.4924 121.712 38.9818 121.776 38.4743Z" fill="white"/>
<path d="M156.543 30.7275C156.4 30.7747 156.257 30.8341 156.115 30.9051C155.972 30.9764 155.822 31.0205 155.663 31.0358C154.538 31.0996 153.421 31.159 152.313 31.2144C151.204 31.2697 150.087 31.3132 148.962 31.3447C148.851 31.3447 148.74 31.3492 148.63 31.357C148.519 31.3648 148.408 31.3688 148.297 31.3688C147.932 31.3688 147.603 31.2976 147.31 31.155C147.017 31.0124 146.807 30.6881 146.681 30.1803C146.648 30.022 146.554 29.8835 146.396 29.7644C146.236 29.6455 146.094 29.5233 145.968 29.3967C145.746 29.2066 145.483 29.0602 145.183 28.9567C144.881 28.8542 144.596 28.8026 144.327 28.8026C144.074 28.8026 143.86 28.8497 143.686 28.9448C143.368 29.1196 143.103 29.416 142.889 29.836C142.675 30.256 142.6 30.6399 142.664 30.9886C142.838 32.0343 143.448 32.6287 144.494 32.7713C145.254 32.8823 146.007 32.9886 146.751 33.0915C147.495 33.195 148.248 33.286 149.008 33.3651C150.245 33.4921 151.31 33.8757 152.204 34.5177C153.1 35.159 153.92 35.9555 154.665 36.9061C155.266 37.7145 155.737 38.5496 156.078 39.4133C156.419 40.277 156.525 41.2235 156.398 42.2532C156.366 42.5069 156.304 42.8117 156.208 43.1682C156.114 43.5247 155.998 43.8896 155.864 44.2611C155.73 44.6342 155.591 44.9822 155.448 45.3067C155.306 45.632 155.171 45.889 155.044 46.0791C154.759 46.4909 154.414 46.8596 154.011 47.1842C153.607 47.5091 153.198 47.8061 152.786 48.075C151.742 48.788 150.668 49.287 149.566 49.5722C148.465 49.8574 147.336 50 146.18 50C145.482 50 144.781 49.9562 144.077 49.8693C143.373 49.7827 142.655 49.6676 141.926 49.5247C140.135 49.1767 138.567 48.5425 137.221 47.6238C135.875 46.7048 134.75 45.4534 133.847 43.8686C133.642 43.5043 133.458 43.1363 133.3 42.7639C133.141 42.3918 133.007 42.0153 132.896 41.635C132.723 41.0806 132.762 40.6525 133.015 40.352C133.269 40.0506 133.689 39.9002 134.274 39.9002C134.861 39.9002 135.447 39.9002 136.034 39.9002C136.62 39.9002 137.205 39.8927 137.792 39.8761C138.71 39.8761 139.523 40.039 140.228 40.3632C140.933 40.6885 141.555 41.2307 142.093 41.9908C142.427 42.4508 142.822 42.7992 143.283 43.0368C143.742 43.2745 144.224 43.3933 144.731 43.3933C145.333 43.3933 145.853 43.2622 146.288 43.0008C146.724 42.7397 147.013 42.2923 147.155 41.6581C147.235 41.2938 147.199 40.9652 147.049 40.6718C146.897 40.3795 146.648 40.1609 146.3 40.0183C145.809 39.8133 145.314 39.6228 144.815 39.448C144.315 39.2738 143.812 39.1237 143.306 38.9967C142.165 38.7119 141.008 38.3829 139.836 38.0102C138.664 37.6381 137.603 37.1393 136.651 36.5133C135.702 35.8876 134.925 35.0993 134.324 34.149C133.721 33.1984 133.42 32.0183 133.42 30.608C133.436 28.8341 133.887 27.3607 134.775 26.1877C135.662 25.0154 136.89 24.057 138.458 23.3125C139.472 22.8365 140.49 22.4569 141.512 22.1718C142.534 21.8869 143.59 21.7437 144.685 21.7437C144.78 21.7437 144.871 21.7437 144.958 21.7437C145.044 21.7437 145.128 21.7518 145.207 21.7671C146.49 21.8153 147.731 21.9895 148.927 22.2899C150.122 22.5914 151.259 23.0748 152.336 23.7399C153.208 24.2784 153.901 24.9679 154.416 25.8071C154.931 26.6477 155.37 27.5427 155.735 28.4929C155.862 28.8413 155.989 29.1977 156.115 29.5617C156.242 29.9277 156.384 30.3154 156.543 30.7275Z" fill="white"/>
</svg>
