<svg width="547" height="588" viewBox="0 0 547 588" fill="none" xmlns="http://www.w3.org/2000/svg">
<path d="M231.671 526.098C231.807 525.758 232 525.509 232.249 525.35C232.521 525.192 232.805 525.112 233.099 525.112C233.53 525.112 233.904 525.26 234.221 525.554C234.561 525.849 234.731 526.2 234.731 526.608C234.731 526.835 234.686 527.05 234.595 527.254L228.101 541.024C227.943 541.387 227.693 541.67 227.353 541.874C227.036 542.056 226.696 542.146 226.333 542.146C225.971 542.146 225.619 542.056 225.279 541.874C224.962 541.67 224.724 541.387 224.565 541.024L218.071 527.254C217.981 527.073 217.935 526.858 217.935 526.608C217.935 526.2 218.117 525.849 218.479 525.554C218.842 525.26 219.25 525.112 219.703 525.112C220.361 525.112 220.848 525.43 221.165 526.064L226.435 537.76L231.671 526.098ZM244.508 525.01C246.706 525.01 248.338 525.566 249.404 526.676C250.492 527.787 251.036 529.476 251.036 531.742V540.548C251.036 541.07 250.888 541.478 250.594 541.772C250.299 542.044 249.891 542.18 249.37 542.18C248.871 542.18 248.474 542.033 248.18 541.738C247.885 541.444 247.738 541.047 247.738 540.548V539.29C247.307 540.242 246.661 540.979 245.8 541.5C244.961 541.999 243.975 542.248 242.842 542.248C241.754 542.248 240.756 542.033 239.85 541.602C238.966 541.149 238.263 540.537 237.742 539.766C237.22 538.996 236.96 538.123 236.96 537.148C236.937 535.924 237.243 534.972 237.878 534.292C238.512 533.59 239.544 533.091 240.972 532.796C242.4 532.479 244.383 532.32 246.922 532.32H247.704V531.334C247.704 530.065 247.443 529.147 246.922 528.58C246.4 528.014 245.562 527.73 244.406 527.73C243.612 527.73 242.864 527.832 242.162 528.036C241.459 528.24 240.688 528.535 239.85 528.92C239.238 529.26 238.807 529.43 238.558 529.43C238.218 529.43 237.934 529.306 237.708 529.056C237.504 528.807 237.402 528.49 237.402 528.104C237.402 527.764 237.492 527.47 237.674 527.22C237.878 526.948 238.195 526.688 238.626 526.438C239.419 526.008 240.348 525.668 241.414 525.418C242.479 525.146 243.51 525.01 244.508 525.01ZM243.454 539.698C244.7 539.698 245.72 539.279 246.514 538.44C247.307 537.579 247.704 536.48 247.704 535.142V534.258H247.092C245.324 534.258 243.964 534.338 243.012 534.496C242.06 534.655 241.38 534.927 240.972 535.312C240.564 535.675 240.36 536.208 240.36 536.91C240.36 537.726 240.654 538.395 241.244 538.916C241.833 539.438 242.57 539.698 243.454 539.698ZM274.773 525.01C278.49 525.01 280.349 527.243 280.349 531.708V540.548C280.349 541.07 280.19 541.478 279.873 541.772C279.556 542.044 279.136 542.18 278.615 542.18C278.116 542.18 277.708 542.044 277.391 541.772C277.074 541.478 276.915 541.07 276.915 540.548V531.742C276.915 530.36 276.666 529.362 276.167 528.75C275.668 528.116 274.886 527.798 273.821 527.798C272.574 527.798 271.588 528.229 270.863 529.09C270.138 529.929 269.775 531.085 269.775 532.558V540.548C269.775 541.07 269.616 541.478 269.299 541.772C268.982 542.044 268.562 542.18 268.041 542.18C267.542 542.18 267.134 542.044 266.817 541.772C266.5 541.478 266.341 541.07 266.341 540.548V531.742C266.341 530.36 266.092 529.362 265.593 528.75C265.094 528.116 264.312 527.798 263.247 527.798C262 527.798 261.003 528.229 260.255 529.09C259.53 529.929 259.167 531.085 259.167 532.558V540.548C259.167 541.07 259.008 541.478 258.691 541.772C258.374 542.044 257.966 542.18 257.467 542.18C256.968 542.18 256.549 542.044 256.209 541.772C255.892 541.478 255.733 541.07 255.733 540.548V526.71C255.733 526.212 255.903 525.815 256.243 525.52C256.583 525.226 256.991 525.078 257.467 525.078C257.943 525.078 258.328 525.226 258.623 525.52C258.94 525.792 259.099 526.178 259.099 526.676V527.934C259.598 526.982 260.289 526.257 261.173 525.758C262.057 525.26 263.077 525.01 264.233 525.01C265.502 525.01 266.545 525.271 267.361 525.792C268.2 526.314 268.823 527.118 269.231 528.206C269.73 527.232 270.466 526.461 271.441 525.894C272.416 525.305 273.526 525.01 274.773 525.01ZM292.259 542.248C290.627 542.248 289.188 541.897 287.941 541.194C286.717 540.492 285.765 539.494 285.085 538.202C284.428 536.888 284.099 535.369 284.099 533.646C284.099 531.901 284.428 530.382 285.085 529.09C285.765 527.776 286.717 526.767 287.941 526.064C289.188 525.362 290.627 525.01 292.259 525.01C293.891 525.01 295.319 525.362 296.543 526.064C297.79 526.767 298.742 527.776 299.399 529.09C300.079 530.382 300.419 531.901 300.419 533.646C300.419 535.369 300.079 536.888 299.399 538.202C298.742 539.494 297.79 540.492 296.543 541.194C295.319 541.897 293.891 542.248 292.259 542.248ZM292.259 539.528C293.778 539.528 294.934 539.03 295.727 538.032C296.543 537.035 296.951 535.573 296.951 533.646C296.951 531.742 296.543 530.292 295.727 529.294C294.911 528.274 293.755 527.764 292.259 527.764C290.763 527.764 289.607 528.274 288.791 529.294C287.975 530.292 287.567 531.742 287.567 533.646C287.567 535.573 287.964 537.035 288.757 538.032C289.573 539.03 290.741 539.528 292.259 539.528ZM310.023 542.248C307.711 542.248 305.818 541.772 304.345 540.82C303.937 540.571 303.642 540.31 303.461 540.038C303.302 539.766 303.223 539.46 303.223 539.12C303.223 538.758 303.325 538.452 303.529 538.202C303.733 537.953 303.993 537.828 304.311 537.828C304.605 537.828 305.07 538.01 305.705 538.372C306.385 538.735 307.042 539.03 307.677 539.256C308.334 539.483 309.15 539.596 310.125 539.596C311.213 539.596 312.063 539.404 312.675 539.018C313.287 538.633 313.593 538.089 313.593 537.386C313.593 536.933 313.468 536.57 313.219 536.298C312.992 536.026 312.584 535.788 311.995 535.584C311.405 535.358 310.533 535.12 309.377 534.87C307.382 534.44 305.943 533.862 305.059 533.136C304.197 532.388 303.767 531.38 303.767 530.11C303.767 529.136 304.05 528.263 304.617 527.492C305.183 526.699 305.965 526.087 306.963 525.656C307.96 525.226 309.093 525.01 310.363 525.01C311.269 525.01 312.153 525.135 313.015 525.384C313.876 525.611 314.635 525.951 315.293 526.404C316.041 526.903 316.415 527.481 316.415 528.138C316.415 528.501 316.301 528.807 316.075 529.056C315.871 529.306 315.621 529.43 315.327 529.43C315.123 529.43 314.919 529.385 314.715 529.294C314.511 529.204 314.239 529.056 313.899 528.852C313.287 528.49 312.709 528.206 312.165 528.002C311.643 527.798 310.986 527.696 310.193 527.696C309.241 527.696 308.47 527.9 307.881 528.308C307.314 528.716 307.031 529.272 307.031 529.974C307.031 530.609 307.291 531.108 307.813 531.47C308.357 531.81 309.365 532.139 310.839 532.456C312.357 532.774 313.547 533.136 314.409 533.544C315.27 533.952 315.882 534.462 316.245 535.074C316.63 535.664 316.823 536.423 316.823 537.352C316.823 538.826 316.199 540.016 314.953 540.922C313.729 541.806 312.085 542.248 310.023 542.248ZM343.441 517.87C343.963 517.87 344.382 518.018 344.699 518.312C345.017 518.607 345.175 519.004 345.175 519.502V540.514C345.175 541.036 345.017 541.444 344.699 541.738C344.405 542.033 343.997 542.18 343.475 542.18C342.954 542.18 342.535 542.033 342.217 541.738C341.923 541.444 341.775 541.036 341.775 540.514V539.154C341.277 540.152 340.551 540.922 339.599 541.466C338.647 541.988 337.548 542.248 336.301 542.248C334.873 542.248 333.593 541.886 332.459 541.16C331.349 540.435 330.476 539.415 329.841 538.1C329.229 536.786 328.923 535.278 328.923 533.578C328.923 531.856 329.229 530.348 329.841 529.056C330.476 527.764 331.349 526.767 332.459 526.064C333.57 525.362 334.851 525.01 336.301 525.01C337.548 525.01 338.636 525.282 339.565 525.826C340.517 526.348 341.243 527.096 341.741 528.07V519.434C341.741 518.958 341.889 518.584 342.183 518.312C342.501 518.018 342.92 517.87 343.441 517.87ZM337.117 539.528C338.591 539.528 339.735 539.018 340.551 537.998C341.367 536.978 341.775 535.528 341.775 533.646C341.775 531.765 341.367 530.314 340.551 529.294C339.758 528.274 338.613 527.764 337.117 527.764C335.621 527.764 334.454 528.274 333.615 529.294C332.799 530.292 332.391 531.72 332.391 533.578C332.391 535.437 332.811 536.899 333.649 537.964C334.488 539.007 335.644 539.528 337.117 539.528ZM362.951 537.828C363.269 537.828 363.529 537.953 363.733 538.202C363.937 538.452 364.039 538.769 364.039 539.154C364.039 539.812 363.631 540.367 362.815 540.82C362.022 541.274 361.149 541.625 360.197 541.874C359.268 542.124 358.373 542.248 357.511 542.248C354.882 542.248 352.808 541.489 351.289 539.97C349.771 538.429 349.011 536.332 349.011 533.68C349.011 531.98 349.34 530.473 349.997 529.158C350.677 527.844 351.618 526.824 352.819 526.098C354.043 525.373 355.426 525.01 356.967 525.01C359.189 525.01 360.945 525.724 362.237 527.152C363.529 528.58 364.175 530.507 364.175 532.932C364.175 533.839 363.767 534.292 362.951 534.292H352.445C352.672 537.806 354.361 539.562 357.511 539.562C358.35 539.562 359.075 539.449 359.687 539.222C360.299 538.996 360.945 538.701 361.625 538.338C361.693 538.293 361.875 538.202 362.169 538.066C362.487 537.908 362.747 537.828 362.951 537.828ZM357.035 527.526C355.721 527.526 354.667 527.946 353.873 528.784C353.08 529.623 352.604 530.802 352.445 532.32H361.217C361.149 530.779 360.753 529.6 360.027 528.784C359.325 527.946 358.327 527.526 357.035 527.526ZM375.919 539.562C376.418 539.608 376.769 539.744 376.973 539.97C377.2 540.174 377.313 540.469 377.313 540.854C377.313 541.308 377.132 541.659 376.769 541.908C376.429 542.135 375.919 542.226 375.239 542.18L374.321 542.112C372.485 541.976 371.114 541.421 370.207 540.446C369.301 539.449 368.847 537.987 368.847 536.06V528.07H366.807C365.81 528.07 365.311 527.628 365.311 526.744C365.311 526.336 365.436 526.019 365.685 525.792C365.957 525.543 366.331 525.418 366.807 525.418H368.847V521.916C368.847 521.395 368.995 520.987 369.289 520.692C369.607 520.398 370.026 520.25 370.547 520.25C371.069 520.25 371.488 520.398 371.805 520.692C372.123 520.987 372.281 521.395 372.281 521.916V525.418H375.647C376.123 525.418 376.486 525.543 376.735 525.792C377.007 526.019 377.143 526.336 377.143 526.744C377.143 527.175 377.007 527.504 376.735 527.73C376.486 527.957 376.123 528.07 375.647 528.07H372.281V536.298C372.281 537.364 372.497 538.146 372.927 538.644C373.381 539.143 374.061 539.426 374.967 539.494L375.919 539.562ZM386.988 542.248C385.356 542.248 383.916 541.897 382.67 541.194C381.446 540.492 380.494 539.494 379.814 538.202C379.156 536.888 378.828 535.369 378.828 533.646C378.828 531.901 379.156 530.382 379.814 529.09C380.494 527.776 381.446 526.767 382.67 526.064C383.916 525.362 385.356 525.01 386.988 525.01C388.62 525.01 390.048 525.362 391.272 526.064C392.518 526.767 393.47 527.776 394.128 529.09C394.808 530.382 395.148 531.901 395.148 533.646C395.148 535.369 394.808 536.888 394.128 538.202C393.47 539.494 392.518 540.492 391.272 541.194C390.048 541.897 388.62 542.248 386.988 542.248ZM386.988 539.528C388.506 539.528 389.662 539.03 390.456 538.032C391.272 537.035 391.68 535.573 391.68 533.646C391.68 531.742 391.272 530.292 390.456 529.294C389.64 528.274 388.484 527.764 386.988 527.764C385.492 527.764 384.336 528.274 383.52 529.294C382.704 530.292 382.296 531.742 382.296 533.646C382.296 535.573 382.692 537.035 383.486 538.032C384.302 539.03 385.469 539.528 386.988 539.528ZM407.913 525.01C411.88 525.01 413.863 527.243 413.863 531.708V540.548C413.863 541.07 413.704 541.478 413.387 541.772C413.092 542.044 412.673 542.18 412.129 542.18C411.608 542.18 411.188 542.033 410.871 541.738C410.576 541.444 410.429 541.047 410.429 540.548V531.878C410.429 530.473 410.146 529.442 409.579 528.784C409.035 528.127 408.174 527.798 406.995 527.798C405.612 527.798 404.502 528.229 403.663 529.09C402.824 529.952 402.405 531.108 402.405 532.558V540.548C402.405 541.047 402.246 541.444 401.929 541.738C401.634 542.033 401.226 542.18 400.705 542.18C400.184 542.18 399.764 542.033 399.447 541.738C399.13 541.444 398.971 541.047 398.971 540.548V526.71C398.971 526.234 399.13 525.849 399.447 525.554C399.787 525.237 400.206 525.078 400.705 525.078C401.204 525.078 401.6 525.226 401.895 525.52C402.19 525.815 402.337 526.2 402.337 526.676V528.07C402.881 527.073 403.64 526.314 404.615 525.792C405.59 525.271 406.689 525.01 407.913 525.01ZM425.531 525.01C427.73 525.01 429.362 525.566 430.427 526.676C431.515 527.787 432.059 529.476 432.059 531.742V540.548C432.059 541.07 431.912 541.478 431.617 541.772C431.322 542.044 430.914 542.18 430.393 542.18C429.894 542.18 429.498 542.033 429.203 541.738C428.908 541.444 428.761 541.047 428.761 540.548V539.29C428.33 540.242 427.684 540.979 426.823 541.5C425.984 541.999 424.998 542.248 423.865 542.248C422.777 542.248 421.78 542.033 420.873 541.602C419.989 541.149 419.286 540.537 418.765 539.766C418.244 538.996 417.983 538.123 417.983 537.148C417.96 535.924 418.266 534.972 418.901 534.292C419.536 533.59 420.567 533.091 421.995 532.796C423.423 532.479 425.406 532.32 427.945 532.32H428.727V531.334C428.727 530.065 428.466 529.147 427.945 528.58C427.424 528.014 426.585 527.73 425.429 527.73C424.636 527.73 423.888 527.832 423.185 528.036C422.482 528.24 421.712 528.535 420.873 528.92C420.261 529.26 419.83 529.43 419.581 529.43C419.241 529.43 418.958 529.306 418.731 529.056C418.527 528.807 418.425 528.49 418.425 528.104C418.425 527.764 418.516 527.47 418.697 527.22C418.901 526.948 419.218 526.688 419.649 526.438C420.442 526.008 421.372 525.668 422.437 525.418C423.502 525.146 424.534 525.01 425.531 525.01ZM424.477 539.698C425.724 539.698 426.744 539.279 427.537 538.44C428.33 537.579 428.727 536.48 428.727 535.142V534.258H428.115C426.347 534.258 424.987 534.338 424.035 534.496C423.083 534.655 422.403 534.927 421.995 535.312C421.587 535.675 421.383 536.208 421.383 536.91C421.383 537.726 421.678 538.395 422.267 538.916C422.856 539.438 423.593 539.698 424.477 539.698ZM445.46 525.078C446.548 525.01 447.092 525.475 447.092 526.472C447.092 526.971 446.968 527.345 446.718 527.594C446.469 527.844 446.038 527.991 445.426 528.036L444.406 528.138C442.978 528.274 441.913 528.773 441.21 529.634C440.53 530.496 440.19 531.538 440.19 532.762V540.548C440.19 541.092 440.032 541.5 439.714 541.772C439.397 542.044 438.989 542.18 438.49 542.18C437.992 542.18 437.572 542.044 437.232 541.772C436.915 541.5 436.756 541.092 436.756 540.548V526.71C436.756 526.189 436.915 525.792 437.232 525.52C437.572 525.226 437.992 525.078 438.49 525.078C438.944 525.078 439.318 525.226 439.612 525.52C439.93 525.792 440.088 526.178 440.088 526.676V528.308C440.542 527.311 441.199 526.552 442.06 526.03C442.922 525.509 443.896 525.203 444.984 525.112L445.46 525.078ZM172.197 577.248C170.565 577.248 169.125 576.897 167.879 576.194C166.655 575.492 165.703 574.494 165.023 573.202C164.365 571.888 164.037 570.369 164.037 568.646C164.037 566.901 164.365 565.382 165.023 564.09C165.703 562.776 166.655 561.767 167.879 561.064C169.125 560.362 170.565 560.01 172.197 560.01C173.829 560.01 175.257 560.362 176.481 561.064C177.727 561.767 178.679 562.776 179.337 564.09C180.017 565.382 180.357 566.901 180.357 568.646C180.357 570.369 180.017 571.888 179.337 573.202C178.679 574.494 177.727 575.492 176.481 576.194C175.257 576.897 173.829 577.248 172.197 577.248ZM172.197 574.528C173.715 574.528 174.871 574.03 175.665 573.032C176.481 572.035 176.889 570.573 176.889 568.646C176.889 566.742 176.481 565.292 175.665 564.294C174.849 563.274 173.693 562.764 172.197 562.764C170.701 562.764 169.545 563.274 168.729 564.294C167.913 565.292 167.505 566.742 167.505 568.646C167.505 570.573 167.901 572.035 168.695 573.032C169.511 574.03 170.678 574.528 172.197 574.528ZM189.96 577.248C187.648 577.248 185.755 576.772 184.282 575.82C183.874 575.571 183.579 575.31 183.398 575.038C183.239 574.766 183.16 574.46 183.16 574.12C183.16 573.758 183.262 573.452 183.466 573.202C183.67 572.953 183.931 572.828 184.248 572.828C184.543 572.828 185.007 573.01 185.642 573.372C186.322 573.735 186.979 574.03 187.614 574.256C188.271 574.483 189.087 574.596 190.062 574.596C191.15 574.596 192 574.404 192.612 574.018C193.224 573.633 193.53 573.089 193.53 572.386C193.53 571.933 193.405 571.57 193.156 571.298C192.929 571.026 192.521 570.788 191.932 570.584C191.343 570.358 190.47 570.12 189.314 569.87C187.319 569.44 185.88 568.862 184.996 568.136C184.135 567.388 183.704 566.38 183.704 565.11C183.704 564.136 183.987 563.263 184.554 562.492C185.121 561.699 185.903 561.087 186.9 560.656C187.897 560.226 189.031 560.01 190.3 560.01C191.207 560.01 192.091 560.135 192.952 560.384C193.813 560.611 194.573 560.951 195.23 561.404C195.978 561.903 196.352 562.481 196.352 563.138C196.352 563.501 196.239 563.807 196.012 564.056C195.808 564.306 195.559 564.43 195.264 564.43C195.06 564.43 194.856 564.385 194.652 564.294C194.448 564.204 194.176 564.056 193.836 563.852C193.224 563.49 192.646 563.206 192.102 563.002C191.581 562.798 190.923 562.696 190.13 562.696C189.178 562.696 188.407 562.9 187.818 563.308C187.251 563.716 186.968 564.272 186.968 564.974C186.968 565.609 187.229 566.108 187.75 566.47C188.294 566.81 189.303 567.139 190.776 567.456C192.295 567.774 193.485 568.136 194.346 568.544C195.207 568.952 195.819 569.462 196.182 570.074C196.567 570.664 196.76 571.423 196.76 572.352C196.76 573.826 196.137 575.016 194.89 575.922C193.666 576.806 192.023 577.248 189.96 577.248Z" fill="#740F99"/>
<path d="M110.513 542.214C108.904 542.305 108.099 541.716 108.099 540.446C108.099 539.381 108.723 538.792 109.969 538.678L111.057 538.61C111.987 538.565 112.712 538.259 113.233 537.692C113.755 537.126 114.061 536.31 114.151 535.244L115.375 520.012C115.421 519.355 115.659 518.834 116.089 518.448C116.52 518.063 117.064 517.87 117.721 517.87C118.401 517.87 118.923 518.063 119.285 518.448C119.648 518.834 119.807 519.355 119.761 520.012L118.571 535.244C118.413 537.375 117.744 539.03 116.565 540.208C115.387 541.364 113.732 542.01 111.601 542.146L110.513 542.214ZM137.319 525.044C137.976 525.044 138.475 525.226 138.815 525.588C139.177 525.928 139.325 526.416 139.257 527.05L138.203 540.276C138.18 540.843 137.953 541.308 137.523 541.67C137.092 542.033 136.559 542.214 135.925 542.214C135.335 542.214 134.871 542.044 134.531 541.704C134.191 541.364 134.032 540.911 134.055 540.344L134.123 539.698C133.533 540.514 132.774 541.149 131.845 541.602C130.915 542.056 129.895 542.282 128.785 542.282C126.971 542.282 125.589 541.784 124.637 540.786C123.685 539.789 123.209 538.338 123.209 536.434C123.209 535.981 123.22 535.63 123.243 535.38L123.889 527.05C123.934 526.416 124.161 525.928 124.569 525.588C124.999 525.226 125.543 525.044 126.201 525.044C126.835 525.044 127.323 525.226 127.663 525.588C128.025 525.928 128.184 526.416 128.139 527.05L127.493 535.108C127.47 535.244 127.459 535.448 127.459 535.72C127.459 537.851 128.433 538.916 130.383 538.916C131.561 538.916 132.491 538.542 133.171 537.794C133.873 537.024 134.281 535.97 134.395 534.632L135.007 527.05C135.075 526.416 135.313 525.928 135.721 525.588C136.151 525.226 136.684 525.044 137.319 525.044ZM153.268 524.976C155.127 524.976 156.532 525.486 157.484 526.506C158.459 527.504 158.946 528.988 158.946 530.96C158.946 531.391 158.935 531.72 158.912 531.946L158.232 540.174C158.187 540.809 157.96 541.308 157.552 541.67C157.144 542.033 156.623 542.214 155.988 542.214C155.331 542.214 154.821 542.033 154.458 541.67C154.096 541.308 153.937 540.809 153.982 540.174L154.662 532.116C154.844 529.6 153.846 528.342 151.67 528.342C150.424 528.342 149.449 528.716 148.746 529.464C148.044 530.212 147.636 531.255 147.522 532.592L146.876 540.174C146.831 540.809 146.604 541.308 146.196 541.67C145.788 542.033 145.267 542.214 144.632 542.214C143.975 542.214 143.465 542.033 143.102 541.67C142.762 541.308 142.604 540.809 142.626 540.174L143.714 526.982C143.737 526.393 143.964 525.928 144.394 525.588C144.825 525.226 145.358 525.044 145.992 525.044C146.604 525.044 147.08 525.214 147.42 525.554C147.76 525.894 147.896 526.348 147.828 526.914L147.794 527.56C148.361 526.744 149.12 526.11 150.072 525.656C151.024 525.203 152.09 524.976 153.268 524.976ZM168.329 535.686C168.306 535.822 168.295 536.026 168.295 536.298C168.295 537.205 168.499 537.896 168.907 538.372C169.338 538.848 169.938 539.086 170.709 539.086C170.913 539.086 171.151 539.075 171.423 539.052C171.718 539.007 171.956 538.984 172.137 538.984C172.454 538.984 172.704 539.109 172.885 539.358C173.066 539.608 173.157 539.948 173.157 540.378C173.157 541.081 172.908 541.568 172.409 541.84C171.91 542.112 171.038 542.248 169.791 542.248C167.955 542.248 166.538 541.761 165.541 540.786C164.544 539.812 164.045 538.429 164.045 536.638C164.045 536.23 164.056 535.924 164.079 535.72L164.623 528.58H162.957C162.39 528.58 161.948 528.456 161.631 528.206C161.314 527.934 161.155 527.549 161.155 527.05C161.155 525.94 161.824 525.384 163.161 525.384H164.895L165.133 522.256C165.178 521.644 165.405 521.168 165.813 520.828C166.221 520.466 166.754 520.284 167.411 520.284C168.068 520.284 168.567 520.466 168.907 520.828C169.27 521.168 169.428 521.656 169.383 522.29L169.145 525.384H172.001C172.568 525.384 172.998 525.52 173.293 525.792C173.61 526.042 173.769 526.404 173.769 526.88C173.769 528.014 173.112 528.58 171.797 528.58H168.873L168.329 535.686ZM183.124 524.976C185.368 524.976 187.045 525.486 188.156 526.506C189.266 527.526 189.822 529.068 189.822 531.13C189.822 531.561 189.81 531.89 189.788 532.116L189.142 540.242C189.096 540.877 188.881 541.364 188.496 541.704C188.133 542.044 187.634 542.214 187 542.214C186.41 542.214 185.934 542.033 185.572 541.67C185.232 541.285 185.084 540.798 185.13 540.208L185.164 539.562C184.71 540.424 184.076 541.092 183.26 541.568C182.444 542.044 181.514 542.282 180.472 542.282C179.384 542.282 178.398 542.078 177.514 541.67C176.652 541.24 175.972 540.662 175.474 539.936C174.975 539.188 174.726 538.35 174.726 537.42C174.726 536.151 175.043 535.142 175.678 534.394C176.335 533.624 177.378 533.068 178.806 532.728C180.234 532.366 182.138 532.184 184.518 532.184H185.742L185.776 531.538C185.866 530.405 185.651 529.566 185.13 529.022C184.608 528.478 183.781 528.206 182.648 528.206C181.31 528.206 179.78 528.648 178.058 529.532C177.763 529.668 177.48 529.736 177.208 529.736C176.8 529.736 176.46 529.6 176.188 529.328C175.916 529.034 175.78 528.682 175.78 528.274C175.78 527.98 175.87 527.685 176.052 527.39C176.233 527.073 176.494 526.812 176.834 526.608C177.65 526.11 178.613 525.713 179.724 525.418C180.834 525.124 181.968 524.976 183.124 524.976ZM181.56 539.222C182.625 539.222 183.52 538.848 184.246 538.1C184.994 537.33 185.413 536.355 185.504 535.176L185.572 534.428H184.62C183.169 534.428 182.024 534.508 181.186 534.666C180.37 534.825 179.78 535.097 179.418 535.482C179.055 535.845 178.874 536.344 178.874 536.978C178.874 537.658 179.112 538.202 179.588 538.61C180.086 539.018 180.744 539.222 181.56 539.222ZM199.445 542.282C198.402 542.282 197.36 542.158 196.317 541.908C195.297 541.659 194.39 541.308 193.597 540.854C192.849 540.469 192.475 539.891 192.475 539.12C192.475 538.69 192.611 538.316 192.883 537.998C193.155 537.681 193.495 537.522 193.903 537.522C194.175 537.522 194.47 537.613 194.787 537.794C196.351 538.701 198.017 539.154 199.785 539.154C201.848 539.154 202.879 538.565 202.879 537.386C202.879 536.82 202.596 536.389 202.029 536.094C201.462 535.777 200.578 535.448 199.377 535.108C198.176 534.768 197.19 534.44 196.419 534.122C195.671 533.782 195.025 533.295 194.481 532.66C193.937 532.003 193.676 531.153 193.699 530.11C193.744 528.546 194.424 527.3 195.739 526.37C197.054 525.441 198.799 524.976 200.975 524.976C201.882 524.976 202.811 525.112 203.763 525.384C204.738 525.634 205.531 525.974 206.143 526.404C206.755 526.79 207.061 527.322 207.061 528.002C207.061 528.433 206.925 528.807 206.653 529.124C206.404 529.419 206.086 529.566 205.701 529.566C205.429 529.566 205.134 529.476 204.817 529.294C203.412 528.478 202.029 528.07 200.669 528.07C199.672 528.07 198.901 528.229 198.357 528.546C197.836 528.864 197.575 529.328 197.575 529.94C197.575 530.507 197.858 530.949 198.425 531.266C198.992 531.561 199.876 531.878 201.077 532.218C202.278 532.558 203.253 532.898 204.001 533.238C204.749 533.556 205.395 534.032 205.939 534.666C206.483 535.301 206.755 536.128 206.755 537.148C206.755 538.758 206.109 540.016 204.817 540.922C203.525 541.829 201.734 542.282 199.445 542.282Z" fill="#CC0A9C"/>
<path d="M217.089 577.282C215.389 577.282 213.904 576.954 212.635 576.296C211.388 575.616 210.425 574.664 209.745 573.44C209.065 572.194 208.725 570.754 208.725 569.122C208.725 567.264 209.076 565.643 209.779 564.26C210.504 562.878 211.513 561.824 212.805 561.098C214.12 560.35 215.638 559.976 217.361 559.976C219.061 559.976 220.534 560.316 221.781 560.996C223.05 561.654 224.025 562.606 224.705 563.852C225.385 565.076 225.725 566.504 225.725 568.136C225.725 569.995 225.362 571.616 224.637 572.998C223.934 574.381 222.926 575.446 221.611 576.194C220.319 576.92 218.812 577.282 217.089 577.282ZM217.089 573.984C218.54 573.984 219.628 573.44 220.353 572.352C221.101 571.242 221.475 569.791 221.475 568C221.475 566.436 221.124 565.258 220.421 564.464C219.741 563.648 218.732 563.24 217.395 563.24C215.944 563.24 214.845 563.796 214.097 564.906C213.349 565.994 212.975 567.434 212.975 569.224C212.975 572.398 214.346 573.984 217.089 573.984ZM239.094 559.976C240.476 559.976 241.7 560.305 242.766 560.962C243.854 561.597 244.692 562.526 245.282 563.75C245.871 564.952 246.166 566.368 246.166 568C246.166 569.814 245.837 571.423 245.18 572.828C244.522 574.234 243.593 575.333 242.392 576.126C241.19 576.897 239.819 577.282 238.278 577.282C237.054 577.282 235.988 577.033 235.082 576.534C234.175 576.036 233.461 575.322 232.94 574.392L232.872 575.174C232.826 575.809 232.6 576.308 232.192 576.67C231.784 577.033 231.262 577.214 230.628 577.214C229.993 577.214 229.494 577.033 229.132 576.67C228.792 576.308 228.633 575.809 228.656 575.174L230.288 554.808C230.31 554.219 230.537 553.754 230.968 553.414C231.421 553.052 231.965 552.87 232.6 552.87C233.234 552.87 233.722 553.04 234.062 553.38C234.402 553.72 234.56 554.174 234.538 554.74L233.892 562.526C234.436 561.71 235.161 561.087 236.068 560.656C236.997 560.203 238.006 559.976 239.094 559.976ZM237.53 573.984C238.89 573.984 239.955 573.474 240.726 572.454C241.519 571.412 241.916 569.995 241.916 568.204C241.916 566.618 241.553 565.394 240.828 564.532C240.102 563.671 239.071 563.24 237.734 563.24C236.396 563.24 235.331 563.762 234.538 564.804C233.767 565.847 233.382 567.252 233.382 569.02C233.382 570.652 233.733 571.888 234.436 572.726C235.161 573.565 236.192 573.984 237.53 573.984ZM255.094 577.282C254.051 577.282 253.008 577.158 251.966 576.908C250.946 576.659 250.039 576.308 249.246 575.854C248.498 575.469 248.124 574.891 248.124 574.12C248.124 573.69 248.26 573.316 248.532 572.998C248.804 572.681 249.144 572.522 249.552 572.522C249.824 572.522 250.118 572.613 250.436 572.794C252 573.701 253.666 574.154 255.434 574.154C257.496 574.154 258.528 573.565 258.528 572.386C258.528 571.82 258.244 571.389 257.678 571.094C257.111 570.777 256.227 570.448 255.026 570.108C253.824 569.768 252.838 569.44 252.068 569.122C251.32 568.782 250.674 568.295 250.13 567.66C249.586 567.003 249.325 566.153 249.348 565.11C249.393 563.546 250.073 562.3 251.388 561.37C252.702 560.441 254.448 559.976 256.624 559.976C257.53 559.976 258.46 560.112 259.412 560.384C260.386 560.634 261.18 560.974 261.792 561.404C262.404 561.79 262.71 562.322 262.71 563.002C262.71 563.433 262.574 563.807 262.302 564.124C262.052 564.419 261.735 564.566 261.35 564.566C261.078 564.566 260.783 564.476 260.466 564.294C259.06 563.478 257.678 563.07 256.318 563.07C255.32 563.07 254.55 563.229 254.006 563.546C253.484 563.864 253.224 564.328 253.224 564.94C253.224 565.507 253.507 565.949 254.074 566.266C254.64 566.561 255.524 566.878 256.726 567.218C257.927 567.558 258.902 567.898 259.65 568.238C260.398 568.556 261.044 569.032 261.588 569.666C262.132 570.301 262.404 571.128 262.404 572.148C262.404 573.758 261.758 575.016 260.466 575.922C259.174 576.829 257.383 577.282 255.094 577.282ZM271.225 570.686C271.203 570.822 271.191 571.026 271.191 571.298C271.191 572.205 271.395 572.896 271.803 573.372C272.234 573.848 272.835 574.086 273.605 574.086C273.809 574.086 274.047 574.075 274.319 574.052C274.614 574.007 274.852 573.984 275.033 573.984C275.351 573.984 275.6 574.109 275.781 574.358C275.963 574.608 276.053 574.948 276.053 575.378C276.053 576.081 275.804 576.568 275.305 576.84C274.807 577.112 273.934 577.248 272.687 577.248C270.851 577.248 269.435 576.761 268.437 575.786C267.44 574.812 266.941 573.429 266.941 571.638C266.941 571.23 266.953 570.924 266.975 570.72L267.519 563.58H265.853C265.287 563.58 264.845 563.456 264.527 563.206C264.21 562.934 264.051 562.549 264.051 562.05C264.051 560.94 264.72 560.384 266.057 560.384H267.791L268.029 557.256C268.075 556.644 268.301 556.168 268.709 555.828C269.117 555.466 269.65 555.284 270.307 555.284C270.965 555.284 271.463 555.466 271.803 555.828C272.166 556.168 272.325 556.656 272.279 557.29L272.041 560.384H274.897C275.464 560.384 275.895 560.52 276.189 560.792C276.507 561.042 276.665 561.404 276.665 561.88C276.665 563.014 276.008 563.58 274.693 563.58H271.769L271.225 570.686ZM286.02 559.976C288.264 559.976 289.942 560.486 291.052 561.506C292.163 562.526 292.718 564.068 292.718 566.13C292.718 566.561 292.707 566.89 292.684 567.116L292.038 575.242C291.993 575.877 291.778 576.364 291.392 576.704C291.03 577.044 290.531 577.214 289.896 577.214C289.307 577.214 288.831 577.033 288.468 576.67C288.128 576.285 287.981 575.798 288.026 575.208L288.06 574.562C287.607 575.424 286.972 576.092 286.156 576.568C285.34 577.044 284.411 577.282 283.368 577.282C282.28 577.282 281.294 577.078 280.41 576.67C279.549 576.24 278.869 575.662 278.37 574.936C277.872 574.188 277.622 573.35 277.622 572.42C277.622 571.151 277.94 570.142 278.574 569.394C279.232 568.624 280.274 568.068 281.702 567.728C283.13 567.366 285.034 567.184 287.414 567.184H288.638L288.672 566.538C288.763 565.405 288.548 564.566 288.026 564.022C287.505 563.478 286.678 563.206 285.544 563.206C284.207 563.206 282.677 563.648 280.954 564.532C280.66 564.668 280.376 564.736 280.104 564.736C279.696 564.736 279.356 564.6 279.084 564.328C278.812 564.034 278.676 563.682 278.676 563.274C278.676 562.98 278.767 562.685 278.948 562.39C279.13 562.073 279.39 561.812 279.73 561.608C280.546 561.11 281.51 560.713 282.62 560.418C283.731 560.124 284.864 559.976 286.02 559.976ZM284.456 574.222C285.522 574.222 286.417 573.848 287.142 573.1C287.89 572.33 288.31 571.355 288.4 570.176L288.468 569.428H287.516C286.066 569.428 284.921 569.508 284.082 569.666C283.266 569.825 282.677 570.097 282.314 570.482C281.952 570.845 281.77 571.344 281.77 571.978C281.77 572.658 282.008 573.202 282.484 573.61C282.983 574.018 283.64 574.222 284.456 574.222ZM288.128 557.766C287.766 558.152 287.369 558.344 286.938 558.344C286.644 558.344 286.394 558.254 286.19 558.072C286.009 557.868 285.918 557.619 285.918 557.324C285.918 557.12 285.986 556.882 286.122 556.61L289.046 552.088C289.25 551.748 289.488 551.499 289.76 551.34C290.032 551.159 290.327 551.068 290.644 551.068C291.098 551.068 291.494 551.227 291.834 551.544C292.197 551.862 292.378 552.236 292.378 552.666C292.378 553.12 292.186 553.55 291.8 553.958L288.128 557.766ZM304.314 577.282C302.636 577.282 301.163 576.954 299.894 576.296C298.647 575.616 297.672 574.664 296.97 573.44C296.29 572.216 295.95 570.8 295.95 569.19C295.95 567.332 296.312 565.711 297.038 564.328C297.763 562.923 298.806 561.846 300.166 561.098C301.526 560.35 303.124 559.976 304.96 559.976C306.048 559.976 307.068 560.112 308.02 560.384C308.994 560.634 309.788 560.974 310.4 561.404C310.898 561.722 311.148 562.22 311.148 562.9C311.148 563.376 311.012 563.796 310.74 564.158C310.49 564.498 310.162 564.668 309.754 564.668C309.527 564.668 309.278 564.6 309.006 564.464C307.782 563.694 306.49 563.308 305.13 563.308C303.611 563.308 302.432 563.818 301.594 564.838C300.755 565.858 300.336 567.286 300.336 569.122C300.336 570.641 300.71 571.831 301.458 572.692C302.228 573.531 303.294 573.95 304.654 573.95C305.334 573.95 305.957 573.86 306.524 573.678C307.09 573.497 307.691 573.214 308.326 572.828C308.62 572.67 308.892 572.59 309.142 572.59C309.527 572.59 309.833 572.738 310.06 573.032C310.286 573.327 310.4 573.678 310.4 574.086C310.4 574.381 310.332 574.676 310.196 574.97C310.06 575.242 309.856 575.48 309.584 575.684C308.949 576.16 308.156 576.546 307.204 576.84C306.252 577.135 305.288 577.282 304.314 577.282ZM327.307 560.044C327.964 560.044 328.463 560.226 328.803 560.588C329.166 560.928 329.313 561.416 329.245 562.05L328.191 575.276C328.168 575.843 327.942 576.308 327.511 576.67C327.08 577.033 326.548 577.214 325.913 577.214C325.324 577.214 324.859 577.044 324.519 576.704C324.179 576.364 324.02 575.911 324.043 575.344L324.111 574.698C323.522 575.514 322.762 576.149 321.833 576.602C320.904 577.056 319.884 577.282 318.773 577.282C316.96 577.282 315.577 576.784 314.625 575.786C313.673 574.789 313.197 573.338 313.197 571.434C313.197 570.981 313.208 570.63 313.231 570.38L313.877 562.05C313.922 561.416 314.149 560.928 314.557 560.588C314.988 560.226 315.532 560.044 316.189 560.044C316.824 560.044 317.311 560.226 317.651 560.588C318.014 560.928 318.172 561.416 318.127 562.05L317.481 570.108C317.458 570.244 317.447 570.448 317.447 570.72C317.447 572.851 318.422 573.916 320.371 573.916C321.55 573.916 322.479 573.542 323.159 572.794C323.862 572.024 324.27 570.97 324.383 569.632L324.995 562.05C325.063 561.416 325.301 560.928 325.709 560.588C326.14 560.226 326.672 560.044 327.307 560.044ZM334.621 577.214C334.009 577.214 333.51 577.044 333.125 576.704C332.739 576.364 332.569 575.854 332.615 575.174L334.247 554.842C334.292 554.185 334.53 553.698 334.961 553.38C335.391 553.04 335.901 552.87 336.491 552.87C337.103 552.87 337.601 553.04 337.987 553.38C338.372 553.698 338.542 554.185 338.497 554.842L336.865 575.174C336.819 575.854 336.581 576.364 336.151 576.704C335.72 577.044 335.21 577.214 334.621 577.214ZM349.237 577.282C347.537 577.282 346.053 576.954 344.783 576.296C343.537 575.616 342.573 574.664 341.893 573.44C341.213 572.194 340.873 570.754 340.873 569.122C340.873 567.264 341.225 565.643 341.927 564.26C342.653 562.878 343.661 561.824 344.953 561.098C346.268 560.35 347.787 559.976 349.509 559.976C351.209 559.976 352.683 560.316 353.929 560.996C355.199 561.654 356.173 562.606 356.853 563.852C357.533 565.076 357.873 566.504 357.873 568.136C357.873 569.995 357.511 571.616 356.785 572.998C356.083 574.381 355.074 575.446 353.759 576.194C352.467 576.92 350.96 577.282 349.237 577.282ZM349.237 573.984C350.688 573.984 351.776 573.44 352.501 572.352C353.249 571.242 353.623 569.791 353.623 568C353.623 566.436 353.272 565.258 352.569 564.464C351.889 563.648 350.881 563.24 349.543 563.24C348.093 563.24 346.993 563.796 346.245 564.906C345.497 565.994 345.123 567.434 345.123 569.224C345.123 572.398 346.495 573.984 349.237 573.984ZM366.822 577.282C365.779 577.282 364.737 577.158 363.694 576.908C362.674 576.659 361.767 576.308 360.974 575.854C360.226 575.469 359.852 574.891 359.852 574.12C359.852 573.69 359.988 573.316 360.26 572.998C360.532 572.681 360.872 572.522 361.28 572.522C361.552 572.522 361.847 572.613 362.164 572.794C363.728 573.701 365.394 574.154 367.162 574.154C369.225 574.154 370.256 573.565 370.256 572.386C370.256 571.82 369.973 571.389 369.406 571.094C368.839 570.777 367.955 570.448 366.754 570.108C365.553 569.768 364.567 569.44 363.796 569.122C363.048 568.782 362.402 568.295 361.858 567.66C361.314 567.003 361.053 566.153 361.076 565.11C361.121 563.546 361.801 562.3 363.116 561.37C364.431 560.441 366.176 559.976 368.352 559.976C369.259 559.976 370.188 560.112 371.14 560.384C372.115 560.634 372.908 560.974 373.52 561.404C374.132 561.79 374.438 562.322 374.438 563.002C374.438 563.433 374.302 563.807 374.03 564.124C373.781 564.419 373.463 564.566 373.078 564.566C372.806 564.566 372.511 564.476 372.194 564.294C370.789 563.478 369.406 563.07 368.046 563.07C367.049 563.07 366.278 563.229 365.734 563.546C365.213 563.864 364.952 564.328 364.952 564.94C364.952 565.507 365.235 565.949 365.802 566.266C366.369 566.561 367.253 566.878 368.454 567.218C369.655 567.558 370.63 567.898 371.378 568.238C372.126 568.556 372.772 569.032 373.316 569.666C373.86 570.301 374.132 571.128 374.132 572.148C374.132 573.758 373.486 575.016 372.194 575.922C370.902 576.829 369.111 577.282 366.822 577.282ZM379.754 570.074C379.414 570.074 379.131 569.961 378.904 569.734C378.7 569.508 378.587 569.179 378.564 568.748L378.36 555.522C378.337 554.616 378.575 553.947 379.074 553.516C379.573 553.086 380.241 552.87 381.08 552.87C381.805 552.87 382.395 553.063 382.848 553.448C383.301 553.811 383.528 554.321 383.528 554.978C383.528 555.092 383.505 555.284 383.46 555.556L381.148 568.748C381.08 569.179 380.921 569.508 380.672 569.734C380.423 569.961 380.117 570.074 379.754 570.074ZM379.38 577.214C378.655 577.214 378.054 576.976 377.578 576.5C377.102 576.002 376.864 575.39 376.864 574.664C376.864 573.939 377.102 573.338 377.578 572.862C378.054 572.364 378.655 572.114 379.38 572.114C380.105 572.114 380.706 572.364 381.182 572.862C381.658 573.338 381.896 573.939 381.896 574.664C381.896 575.39 381.658 576.002 381.182 576.5C380.706 576.976 380.105 577.214 379.38 577.214Z" fill="#15B4C2"/>
<path d="M261.153 493.01L242.796 366.829L168.037 470.123L199.366 346.522L90.7677 413.344L167.012 311.141L41.109 331.318L150.661 266.071L26.6201 236.532L152.802 218.176L49.5081 143.417L173.108 174.747L106.286 66.1475L208.489 142.392L188.313 16.4889L253.559 126.041L283.099 2L301.453 128.182L376.215 24.8873L344.885 148.488L453.483 81.6667L377.239 183.87L503.142 163.692L393.589 228.938L517.63 258.479L391.449 276.834L494.742 351.594L371.143 320.264L437.964 428.863L335.761 352.619L355.938 478.522L290.692 368.97L261.153 493.01Z" fill="#FAB319" stroke="#FAB319" stroke-width="4" stroke-miterlimit="10" stroke-linecap="round" stroke-linejoin="round"/>
<path d="M332.174 307.971C332.174 307.971 306.594 318.219 304.831 322.099L308.886 369.202H373.545L432.387 303.994L332.174 307.971Z" fill="#A80981"/>
<path d="M262.761 330.602L250.476 346.982L282.806 356.035L285.608 339.439L262.761 330.602Z" fill="#780E5E"/>
<path d="M230.646 159.576C230.646 159.576 286.901 159.468 298.54 154.08C310.986 154.888 308.378 205.161 259.005 199.341C209.632 193.522 230.646 159.576 230.646 159.576Z" fill="#052D31"/>
<path d="M313.626 303.876L295.091 245.682C295.091 245.682 291.643 224.128 280.866 209.472C270.089 194.816 227.844 146.105 227.844 146.105C227.844 146.105 223.532 136.622 193.357 124.983C163.182 113.344 22.8941 80.0916 7.25717 100.987C-8.37972 121.883 6.12052 210.595 6.12052 210.595C6.12052 210.595 70.9333 257.752 97.6599 259.907C111.884 264.649 185.813 311.204 185.813 311.204C185.813 311.204 220.226 341.379 258.897 341.809C265.131 339.493 264.86 334.051 264.86 334.051L289.356 348.253C289.356 348.253 314.208 351.818 318.33 349.617C322.452 347.417 324.821 346.553 324.515 342.04C329.335 339.353 331.535 341.455 332.158 335.129C330.428 328.646 313.626 303.876 313.626 303.876Z" fill="#15B4C2"/>
<path d="M141.587 228.461L205.817 273.939L237.284 307.563C237.284 307.563 288.15 340.485 250.971 343.071" stroke="#0D636A" stroke-width="2" stroke-miterlimit="10" stroke-linecap="round" stroke-linejoin="round"/>
<path d="M189.048 199.81C189.048 199.81 237.328 241.371 245.949 252.147C254.571 262.923 277.417 299.565 277.417 299.565C277.417 299.565 324.256 332.649 324.218 344.032C323.434 351.185 301.881 353.348 286.147 346.228C270.899 339.328 264.054 333.005 264.054 333.005" stroke="#0D636A" stroke-width="2" stroke-miterlimit="10" stroke-linecap="round" stroke-linejoin="round"/>
<path d="M218.361 174.124L272.029 233.18C272.029 233.18 288.194 268.096 288.194 271.114C288.194 274.131 319.84 313.315 324.218 320.632C328.597 327.949 339.276 341.646 323.695 341.646" stroke="#0D636A" stroke-width="2" stroke-miterlimit="10" stroke-linecap="round" stroke-linejoin="round"/>
<path d="M158.441 320.257C158.441 320.257 170.512 332.327 177.84 342.241C177.84 346.552 234.31 370.26 250.26 378.019C254.57 381.468 299.833 388.796 323.972 397.418C348.112 406.04 354.577 403.452 366.217 397.418C377.856 391.384 427 329.309 506.747 326.723C586.495 324.136 523.128 252.148 523.128 252.148L450.707 257.321C450.707 257.321 438.422 235.552 397.686 257.321C394.668 259.045 386.047 268.96 386.047 268.96C386.047 268.96 348.545 266.373 335.182 274.349C321.818 282.324 313.412 291.591 313.412 300.859C313.412 310.127 319.878 317.024 323.973 318.963C328.068 320.903 371.39 321.98 392.513 314.652C413.635 307.323 345.957 361.637 345.957 361.637C345.957 361.637 336.645 350.216 264.917 345.044C256.98 341.76 214.461 329.79 214.461 329.79C214.461 329.79 172.235 299.08 158.441 320.257Z" fill="#CC0A9C"/>
<path d="M432.387 268.528C432.387 268.528 350.269 266.371 335.181 274.347C316.993 282.782 299.609 307.187 328.212 320.522C374.661 322.231 393.705 314.022 394.848 314.025" stroke="#850365" stroke-width="2" stroke-miterlimit="10" stroke-linecap="round" stroke-linejoin="round"/>
</svg>
