<svg width="365" height="286" viewBox="0 0 365 286" fill="none" xmlns="http://www.w3.org/2000/svg">
<path d="M334 33.5C334 33.5 323.836 37.4839 320.748 40.5806C317.659 43.6776 313.5 64 313.5 64C313.5 64 310.051 44.3905 306.252 40.5806C302.453 36.7713 293 33.5 293 33.5C293 33.5 303.403 28.707 306.252 25.8495C309.102 22.992 313.5 3 313.5 3C313.5 3 317.704 22.7975 320.748 25.8495C323.792 28.9015 334 33.5 334 33.5Z" fill="#FAB319" stroke="#FAB319" stroke-width="3" stroke-miterlimit="10" stroke-linecap="round" stroke-linejoin="round"/>
<path d="M363 71C363 71 355.563 73.8736 353.303 76.1073C351.044 78.3412 348 93 348 93C348 93 345.476 78.8554 342.697 76.1073C339.917 73.3596 333 71 333 71C333 71 340.612 67.5427 342.697 65.4816C344.782 63.4205 348 49 348 49C348 49 351.076 63.2802 353.303 65.4816C355.53 67.6831 363 71 363 71Z" fill="#FAB319" stroke="#FAB319" stroke-width="3" stroke-miterlimit="10" stroke-linecap="round" stroke-linejoin="round"/>
<path d="M111.255 141.918C106.84 135.611 98.6414 126.782 91.7041 122.998C82.8747 118.583 76.5681 121.737 72.7839 112.907C70.8918 108.493 72.7839 104.078 70.2611 100.294C68.369 97.1403 63.954 93.9868 61.4316 91.4644C54.4943 83.8964 48.4059 85.9415 50.0353 75.963C50.8758 70.8143 50.8762 68.5085 50.8762 65.9857C50.2455 64.0936 47.557 61.1919 47.557 58.6691C46.9263 55.5156 46.9263 52.3625 47.557 49.209C50.7105 39.7488 60.1707 35.965 64.5852 30.2887C67.7387 25.8738 66.4773 22.7207 71.5225 18.9365C74.676 16.4137 79.7212 15.1523 83.5054 14.5216C89.8124 13.2602 95.4884 15.1523 101.795 11.9987C106.841 10.1066 111.886 5.69214 116.931 3.16932C133.328 -4.39911 138.374 3.80003 154.141 5.06143C164.232 5.69214 175.584 -1.87588 185.044 8.84565C188.828 12.6299 188.828 21.4593 193.243 23.9821C195.766 25.8742 202.072 23.3514 205.856 25.2435C216.577 31.5505 208.182 66.1824 201.245 75.6426L143.8 74.3097L119.965 140.184L111.255 141.918Z" fill="#C6337C"/>
<path d="M108.481 116.022C108.481 116.022 113.526 159.75 108.481 165.637C103.435 171.524 17.6596 186.24 18.921 213.991C20.1824 241.742 36.521 285.891 36.521 285.891H262.793C262.793 285.891 304.419 189.183 259.85 174.467C257.114 171.731 182.077 165.697 173.654 159.75C166.506 154.705 168.608 108.874 168.608 108.874L108.481 116.022Z" fill="#FFCE00"/>
<path d="M110.663 154.043C125.663 140.488 142.561 133.725 168.32 123.007C168.323 119.189 168.389 115.803 168.457 113.303L145 111.68L108.481 116.022C108.481 116.022 111.15 139.163 110.663 154.043Z" fill="#FF6B00"/>
<path d="M18.921 214.201C20.1824 241.952 36.521 286.312 36.521 286.312H262.793C262.793 286.312 304.419 189.394 259.85 174.677C258.01 172.837 223.459 169.399 198.471 165.605C197.665 174.416 192.4 184.892 184.423 190.918C178.957 194.702 177.438 197.461 142.539 197.461C115.84 197.461 100.708 179.497 95.0704 171.012C69.7099 178.8 17.9388 192.596 18.921 214.201Z" fill="#4F0E67"/>
<path d="M81.2293 101.809C81.2293 101.809 100.573 129.549 141.671 125.777C182.769 122.005 197.317 104.792 200.117 93.591C202.918 82.3906 209.644 55.4246 183.618 40.3307C157.592 25.2363 116.891 33.1894 103.996 40.3374C96.708 43.1407 71.3382 62.0176 76.7934 86.5091C76.7934 86.5091 78.0527 96.4166 81.2293 101.809Z" fill="#FFCE00"/>
<path d="M61.7338 141.651C66.2963 141.852 70.2787 135.558 70.6287 127.593C70.9787 119.628 67.5638 113.009 63.0013 112.808C58.4389 112.608 54.4565 118.902 54.1065 126.867C53.7565 134.832 57.1714 141.451 61.7338 141.651Z" stroke="#730E82" stroke-width="3" stroke-miterlimit="10"/>
<path d="M79.4686 94.9985C96.4425 111.972 47.0925 139.568 37.8422 105.931C28.5918 72.2932 70.6387 73.2741 79.4686 94.9985Z" fill="#FFCE00"/>
<path d="M63.0037 112.812C67.5662 113.013 70.9812 119.632 70.6314 127.598C70.2816 135.563 66.2989 141.857 61.7368 141.657" stroke="#730E82" stroke-width="3" stroke-miterlimit="10" stroke-linecap="round"/>
<path d="M226.586 108.834C231.14 108.493 234.349 101.772 233.755 93.8216C233.16 85.8712 228.986 79.7022 224.432 80.0429C219.878 80.3836 216.668 87.1049 217.263 95.0553C217.858 103.006 222.032 109.175 226.586 108.834Z" stroke="#730E82" stroke-width="3" stroke-miterlimit="10"/>
<path d="M203.196 67.3653C190.433 83.8838 236.052 102.226 240.309 72.1893C244.567 42.1527 208.408 47.6507 203.196 67.3653Z" fill="#FFCE00"/>
<path d="M224.435 80.0419C228.989 79.7009 233.163 85.87 233.758 93.8211C234.353 101.772 231.143 108.493 226.589 108.834" stroke="#730E82" stroke-width="3" stroke-miterlimit="10" stroke-linecap="round"/>
<path d="M73.7222 100.263C73.7222 100.263 62.93 90.7936 48.354 96.3997" stroke="#FF6B00" stroke-width="3" stroke-miterlimit="10" stroke-linecap="round" stroke-linejoin="round"/>
<path d="M212.723 70.7864C212.723 70.7864 220.267 60.8382 233.662 63.0738" stroke="#FF6B00" stroke-width="3" stroke-miterlimit="10" stroke-linecap="round" stroke-linejoin="round"/>
<path d="M109.217 71.4521L106.683 81.8587C103.445 79.9666 98.3776 78.6 96.6881 75.4465C94.2944 70.7163 105.557 71.4521 109.217 71.4521Z" fill="black"/>
<path d="M184.683 62.2732L186.688 71.6917C189.251 69.9792 193.261 68.7426 194.598 65.8884C196.491 61.6072 187.579 62.2732 184.683 62.2732Z" fill="black"/>
<path d="M135.811 76.2875C135.811 76.2875 131.317 67.5102 122.146 67.773C113.088 68.0324 107.079 70.6112 105.222 77.4438C103.248 84.7057 110.205 89.4284 114.262 91.4244C117.771 93.0011 126.771 94.3677 131.501 90.2681C136.385 85.9583 137.283 79.581 135.811 76.2875Z" fill="white"/>
<path d="M135.811 76.2875C135.811 76.2875 131.317 67.5102 122.146 67.773C116.422 67.937 111.917 69.0289 108.907 71.5332C111.19 77.1053 117.788 86.5797 135.837 83.5881C136.704 80.7949 136.613 78.0829 135.811 76.2875Z" fill="black"/>
<path d="M161.022 67.1835C161.022 67.1835 165.149 59.1219 173.573 59.3632C181.892 59.6016 187.411 61.9701 189.117 68.2452C190.93 74.9147 184.54 79.2527 180.814 81.0859C177.592 82.534 169.325 83.7891 164.981 80.0238C160.495 76.0655 159.671 70.2084 161.022 67.1835Z" fill="white"/>
<path d="M189.117 68.2452C187.41 61.9701 181.892 59.6016 173.573 59.3632C168.337 59.2131 164.763 62.2699 162.806 64.6052C165.657 68.8099 173.929 78.4197 188.198 74.8718C189.3 73.0112 189.811 70.8 189.117 68.2452Z" fill="black"/>
<path d="M176.307 153.981C176.307 153.981 174.494 168.16 179.89 168.79C182.168 168.09 184.938 159.818 184.341 157.191C183.744 154.565 178.279 151.131 178.279 151.131L176.307 153.981Z" fill="#FF6B00"/>
<path d="M122.693 138.285C122.693 138.285 128.404 115.124 137.795 112.321C140.178 111.76 148.149 112.303 148.149 112.303C148.149 112.303 161.876 111.173 163.137 113.276C164.399 115.378 164.814 124.904 164.814 124.904L176.726 123.921C176.726 123.921 183.873 121.85 184.854 126.88C185.835 131.909 186.675 138.775 186.675 138.775C186.675 138.775 188.496 140.387 188.777 142.98C188.982 145.825 187.18 152.556 187.305 155.174C189.104 156.972 189.191 156.529 189.338 160.386C189.749 171.178 186.114 174.095 186.114 174.095C186.114 174.095 181.209 178.166 180.508 171.018C179.807 163.87 180.356 164.381 180.356 164.381C180.356 164.381 174.352 160.038 168.451 160.176C167.089 160.208 162.761 165.003 162.007 166.387C161.306 167.789 164.88 187.13 162.147 193.437C158.854 200.725 160.422 199.744 156.017 204.509C154.07 206.616 136.021 286.36 136.021 286.36H66L120.232 182.504C120.232 182.504 114.354 154.858 118.243 148.446C118.769 147.395 122.693 138.285 122.693 138.285Z" fill="#FFB800"/>
<path d="M150.387 120.787C150.387 120.787 151.423 126.912 153.245 127.192" stroke="#FF6B00" stroke-width="2" stroke-miterlimit="10" stroke-linecap="round" stroke-linejoin="round"/>
<path d="M175.149 134.502C175.149 134.502 175.61 137.26 176.789 137.464" stroke="#FF6B00" stroke-width="2" stroke-miterlimit="10" stroke-linecap="round" stroke-linejoin="round"/>
<path d="M117.347 155.966C117.347 155.966 115.769 146.576 126.421 136.625C130.205 131.789 165.249 124.435 165.249 124.435C165.249 124.435 178.48 122.512 182.514 122.911C186.548 123.31 187.108 138.307 187.108 138.307" stroke="#FF6B00" stroke-width="2" stroke-miterlimit="10" stroke-linecap="round" stroke-linejoin="round"/>
<path d="M132.587 145.861C132.587 145.861 137.493 140.396 141.137 138.861C144.781 137.326 178.419 137.466 178.419 137.466C178.419 137.466 188.719 136.489 189.076 141.326C189.433 146.163 187.634 154.337 187.634 154.337" stroke="#FF6B00" stroke-width="2" stroke-miterlimit="10" stroke-linecap="round" stroke-linejoin="round"/>
<path d="M148.084 154.337C148.084 154.337 155.428 145.885 158.464 146.19C171.477 146.162 188.447 155.477 189 155.966C189.506 156.327 189.661 156.538 189.681 157.226C189.702 157.914 189.683 171.195 186.556 173.232" stroke="#FF6B00" stroke-width="2" stroke-miterlimit="10" stroke-linecap="round" stroke-linejoin="round"/>
<path d="M198.288 43.744C192.612 50.6813 177.476 45.0054 169.908 46.2668C157.925 48.7896 150.357 57.6191 137.113 50.6818C125.13 45.0059 123.869 41.2216 109.994 47.5282C101.165 51.3125 86.0285 56.3577 80.9829 43.744L126.561 21.2061L159.568 23.3084L198.288 43.744Z" fill="#C6337C"/>
<path d="M144.641 91.4244C150.277 91.4778 155.827 92.6286 161.46 92.6858C162.274 92.6942 162.273 91.4328 161.46 91.4244C155.827 91.3672 150.277 90.2164 144.641 90.163C143.827 90.155 143.828 91.4164 144.641 91.4244Z" fill="#FF6B00"/>
<path d="M121.352 51.2755C121.352 51.2755 131.349 49.9115 131.868 55.1093C132.387 60.308 122.166 60.6565 122.166 60.6565C122.166 60.6565 112.021 61.7565 111.518 56.7269C111.016 51.6968 121.352 51.2755 121.352 51.2755Z" fill="#701E4F"/>
<path d="M168.743 46.4986C168.743 46.4986 178.764 45.3217 179.186 50.5288C179.608 55.7358 169.381 55.8935 169.381 55.8935C169.381 55.8935 159.217 56.8034 158.809 51.7649C158.401 46.7265 168.743 46.4986 168.743 46.4986Z" fill="#701E4F"/>
</svg>
